<?xml version="1.0" encoding="UTF-8" standalone="no"?>
<!DOCTYPE svg PUBLIC "-//W3C//DTD SVG 1.1//EN"
 "http://www.w3.org/Graphics/SVG/1.1/DTD/svg11.dtd">
<!-- Generated by graphviz version 2.44.1 (20200629.0846)
 -->
<!-- Pages: 1 -->
<svg width="694pt" height="193pt"
 viewBox="0.00 0.00 694.00 192.75" xmlns="http://www.w3.org/2000/svg" xmlns:xlink="http://www.w3.org/1999/xlink">
<g id="graph0" class="graph" transform="scale(1 1) rotate(0) translate(4 188.75)">
<polygon fill="white" stroke="transparent" points="-4,4 -4,-188.75 690,-188.75 690,4 -4,4"/>
<!-- 00 -->
<g id="node1" class="node">
<title>00</title>
<polygon fill="lightgray" stroke="black" points="466,-184.75 440,-184.75 440,-166.75 466,-166.75 466,-184.75"/>
<text text-anchor="middle" x="453" y="-173.55" font-family="Times,serif" font-size="9.00">00</text>
</g>
<!-- 494 -->
<g id="node21" class="node">
<title>494</title>
<ellipse fill="white" stroke="black" cx="193" cy="-109.54" rx="21.43" ry="21.43"/>
<text text-anchor="middle" x="193" y="-107.34" font-family="Times,serif" font-size="9.00">494</text>
</g>
<!-- 00&#45;&gt;494 -->
<g id="edge1" class="edge">
<title>00&#45;&gt;494</title>
<path fill="none" stroke="green" stroke-width="0.17" d="M439.62,-169.46C436.81,-168.47 433.83,-167.5 431,-166.75 340.34,-142.63 310.05,-165.74 223,-130.75 221.4,-130.11 219.79,-129.37 218.21,-128.56"/>
<polygon fill="green" stroke="green" stroke-width="0.17" points="219.83,-125.46 209.43,-123.41 216.28,-131.49 219.83,-125.46"/>
</g>
<!-- 495 -->
<g id="node22" class="node">
<title>495</title>
<ellipse fill="white" stroke="black" cx="253" cy="-109.54" rx="21.43" ry="21.43"/>
<text text-anchor="middle" x="253" y="-107.34" font-family="Times,serif" font-size="9.00">495</text>
</g>
<!-- 00&#45;&gt;495 -->
<g id="edge2" class="edge">
<title>00&#45;&gt;495</title>
<path fill="none" stroke="green" stroke-width="0.44" d="M439.58,-169.61C436.77,-168.6 433.8,-167.6 431,-166.75 366.2,-147.16 344.93,-158.09 283,-130.75 281.42,-130.05 279.83,-129.27 278.26,-128.44"/>
<polygon fill="green" stroke="green" stroke-width="0.44" points="279.9,-125.34 269.52,-123.19 276.29,-131.34 279.9,-125.34"/>
</g>
<!-- 497 -->
<g id="node23" class="node">
<title>497</title>
<ellipse fill="white" stroke="black" cx="313" cy="-109.54" rx="21.43" ry="21.43"/>
<text text-anchor="middle" x="313" y="-107.34" font-family="Times,serif" font-size="9.00">497</text>
</g>
<!-- 00&#45;&gt;497 -->
<g id="edge3" class="edge">
<title>00&#45;&gt;497</title>
<path fill="none" stroke="red" stroke-width="0.25" d="M439.87,-169.9C414.71,-160.54 360.63,-140.08 343,-130.75 341.47,-129.94 339.93,-129.08 338.39,-128.17"/>
<polygon fill="red" stroke="red" stroke-width="0.25" points="340.07,-125.1 329.75,-122.73 336.34,-131.02 340.07,-125.1"/>
</g>
<!-- 498 -->
<g id="node24" class="node">
<title>498</title>
<ellipse fill="white" stroke="black" cx="373" cy="-109.54" rx="21.43" ry="21.43"/>
<text text-anchor="middle" x="373" y="-107.34" font-family="Times,serif" font-size="9.00">498</text>
</g>
<!-- 00&#45;&gt;498 -->
<g id="edge4" class="edge">
<title>00&#45;&gt;498</title>
<path fill="none" stroke="red" stroke-width="0.3" d="M442.87,-166.62C431.44,-157.45 412.47,-142.22 397.18,-129.95"/>
<polygon fill="red" stroke="red" stroke-width="0.3" points="399.12,-127.02 389.13,-123.49 394.74,-132.48 399.12,-127.02"/>
</g>
<!-- 499 -->
<g id="node25" class="node">
<title>499</title>
<ellipse fill="white" stroke="black" cx="433" cy="-109.54" rx="21.43" ry="21.43"/>
<text text-anchor="middle" x="433" y="-107.34" font-family="Times,serif" font-size="9.00">499</text>
</g>
<!-- 00&#45;&gt;499 -->
<g id="edge5" class="edge">
<title>00&#45;&gt;499</title>
<path fill="none" stroke="red" stroke-width="0.32" d="M450.47,-166.62C448.32,-159.74 445.11,-149.43 442.03,-139.53"/>
<polygon fill="red" stroke="red" stroke-width="0.32" points="445.35,-138.41 439.03,-129.9 438.66,-140.49 445.35,-138.41"/>
</g>
<!-- 500 -->
<g id="node26" class="node">
<title>500</title>
<ellipse fill="white" stroke="black" cx="493" cy="-109.54" rx="21.43" ry="21.43"/>
<text text-anchor="middle" x="493" y="-107.34" font-family="Times,serif" font-size="9.00">500</text>
</g>
<!-- 00&#45;&gt;500 -->
<g id="edge6" class="edge">
<title>00&#45;&gt;500</title>
<path fill="none" stroke="green" stroke-width="0.22" d="M458.07,-166.62C462.76,-159.08 470.01,-147.44 476.69,-136.71"/>
<polygon fill="green" stroke="green" stroke-width="0.22" points="479.79,-138.37 482.1,-128.03 473.85,-134.67 479.79,-138.37"/>
</g>
<!-- 01 -->
<g id="node2" class="node">
<title>01</title>
<polygon fill="lightgray" stroke="black" points="510,-184.75 484,-184.75 484,-166.75 510,-166.75 510,-184.75"/>
<text text-anchor="middle" x="497" y="-173.55" font-family="Times,serif" font-size="9.00">01</text>
</g>
<!-- 01&#45;&gt;494 -->
<g id="edge7" class="edge">
<title>01&#45;&gt;494</title>
<path fill="none" stroke="red" stroke-width="0.32" d="M483.64,-169.4C480.82,-168.41 477.84,-167.46 475,-166.75 365.25,-139.27 328.59,-171.39 223,-130.75 221.39,-130.13 219.78,-129.41 218.18,-128.62"/>
<polygon fill="red" stroke="red" stroke-width="0.32" points="219.8,-125.51 209.39,-123.51 216.28,-131.56 219.8,-125.51"/>
</g>
<!-- 01&#45;&gt;495 -->
<g id="edge8" class="edge">
<title>01&#45;&gt;495</title>
<path fill="none" stroke="red" stroke-width="0.19" d="M483.62,-169.49C480.8,-168.5 477.82,-167.52 475,-166.75 391.26,-143.84 363.33,-163.69 283,-130.75 281.4,-130.1 279.8,-129.35 278.22,-128.54"/>
<polygon fill="red" stroke="red" stroke-width="0.19" points="279.84,-125.43 269.45,-123.36 276.28,-131.46 279.84,-125.43"/>
</g>
<!-- 01&#45;&gt;497 -->
<g id="edge9" class="edge">
<title>01&#45;&gt;497</title>
<path fill="none" stroke="green" stroke-width="0.12" d="M483.56,-169.67C480.75,-168.66 477.79,-167.64 475,-166.75 417.04,-148.35 398.28,-156.08 343,-130.75 341.43,-130.03 339.85,-129.23 338.28,-128.38"/>
<polygon fill="green" stroke="green" stroke-width="0.12" points="339.93,-125.29 329.57,-123.1 336.3,-131.27 339.93,-125.29"/>
</g>
<!-- 01&#45;&gt;498 -->
<g id="edge10" class="edge">
<title>01&#45;&gt;498</title>
<path fill="none" stroke="green" stroke-width="0.53" d="M483.91,-169.39C465.45,-161.66 430.91,-146.56 403,-130.75 401.5,-129.9 399.97,-129 398.44,-128.07"/>
<polygon fill="green" stroke="green" stroke-width="0.53" points="400.15,-125 389.84,-122.55 396.37,-130.9 400.15,-125"/>
</g>
<!-- 01&#45;&gt;499 -->
<g id="edge11" class="edge">
<title>01&#45;&gt;499</title>
<path fill="none" stroke="red" stroke-width="0.13" d="M488.89,-166.62C480.4,-158.09 466.67,-144.33 454.95,-132.57"/>
<polygon fill="red" stroke="red" stroke-width="0.13" points="457.15,-129.82 447.62,-125.2 452.2,-134.76 457.15,-129.82"/>
</g>
<!-- 01&#45;&gt;500 -->
<g id="edge12" class="edge">
<title>01&#45;&gt;500</title>
<path fill="none" stroke="red" stroke-width="0.19" d="M496.49,-166.62C496.08,-160.03 495.48,-150.3 494.88,-140.79"/>
<polygon fill="red" stroke="red" stroke-width="0.19" points="498.37,-140.48 494.26,-130.72 491.39,-140.92 498.37,-140.48"/>
</g>
<!-- 02 -->
<g id="node3" class="node">
<title>02</title>
<polygon fill="lightgray" stroke="black" points="554,-184.75 528,-184.75 528,-166.75 554,-166.75 554,-184.75"/>
<text text-anchor="middle" x="541" y="-173.55" font-family="Times,serif" font-size="9.00">02</text>
</g>
<!-- 02&#45;&gt;494 -->
<g id="edge13" class="edge">
<title>02&#45;&gt;494</title>
<path fill="none" stroke="red" stroke-width="0.24" d="M527.65,-169.35C524.83,-168.36 521.85,-167.43 519,-166.75 390.11,-135.91 347.17,-177.06 223,-130.75 221.38,-130.15 219.77,-129.44 218.17,-128.66"/>
<polygon fill="red" stroke="red" stroke-width="0.24" points="219.78,-125.55 209.37,-123.57 216.27,-131.61 219.78,-125.55"/>
</g>
<!-- 02&#45;&gt;495 -->
<g id="edge14" class="edge">
<title>02&#45;&gt;495</title>
<path fill="none" stroke="green" stroke-width="0.15" d="M527.64,-169.42C524.82,-168.43 521.84,-167.48 519,-166.75 416.2,-140.49 381.84,-169.33 283,-130.75 281.39,-130.12 279.78,-129.4 278.19,-128.6"/>
<polygon fill="green" stroke="green" stroke-width="0.15" points="279.81,-125.49 269.41,-123.47 276.28,-131.54 279.81,-125.49"/>
</g>
<!-- 02&#45;&gt;497 -->
<g id="edge15" class="edge">
<title>02&#45;&gt;497</title>
<path fill="none" stroke="red" stroke-width="0.37" d="M527.61,-169.53C524.79,-168.53 521.82,-167.55 519,-166.75 442.16,-145.05 416.62,-161.65 343,-130.75 341.41,-130.08 339.81,-129.33 338.23,-128.51"/>
<polygon fill="red" stroke="red" stroke-width="0.37" points="339.86,-125.4 329.47,-123.31 336.29,-131.42 339.86,-125.4"/>
</g>
<!-- 02&#45;&gt;498 -->
<g id="edge16" class="edge">
<title>02&#45;&gt;498</title>
<path fill="none" stroke="red" stroke-width="0.24" d="M527.54,-169.74C524.73,-168.73 521.77,-167.69 519,-166.75 467.84,-149.52 451.68,-154.08 403,-130.75 401.44,-130.01 399.87,-129.19 398.31,-128.32"/>
<polygon fill="red" stroke="red" stroke-width="0.24" points="399.97,-125.23 389.62,-122.99 396.31,-131.2 399.97,-125.23"/>
</g>
<!-- 02&#45;&gt;499 -->
<g id="edge17" class="edge">
<title>02&#45;&gt;499</title>
<path fill="none" stroke="red" stroke-width="0.18" d="M527.84,-167.74C512.19,-159.31 485.36,-144.56 463,-130.75 461.53,-129.84 460.03,-128.9 458.52,-127.93"/>
<polygon fill="red" stroke="red" stroke-width="0.18" points="460.26,-124.89 449.98,-122.32 456.42,-130.74 460.26,-124.89"/>
</g>
<!-- 02&#45;&gt;500 -->
<g id="edge18" class="edge">
<title>02&#45;&gt;500</title>
<path fill="none" stroke="green" stroke-width="0.12" d="M534.92,-166.62C529.01,-158.71 519.73,-146.3 511.4,-135.16"/>
<polygon fill="green" stroke="green" stroke-width="0.12" points="514.08,-132.9 505.29,-126.99 508.48,-137.09 514.08,-132.9"/>
</g>
<!-- 03 -->
<g id="node4" class="node">
<title>03</title>
<polygon fill="lightgray" stroke="black" points="598,-184.75 572,-184.75 572,-166.75 598,-166.75 598,-184.75"/>
<text text-anchor="middle" x="585" y="-173.55" font-family="Times,serif" font-size="9.00">03</text>
</g>
<!-- 03&#45;&gt;494 -->
<g id="edge19" class="edge">
<title>03&#45;&gt;494</title>
<path fill="none" stroke="green" stroke-width="0.22" d="M571.66,-169.32C568.84,-168.33 565.85,-167.41 563,-166.75 414.95,-132.53 365.78,-182.74 223,-130.75 221.38,-130.16 219.76,-129.46 218.16,-128.69"/>
<polygon fill="green" stroke="green" stroke-width="0.22" points="219.76,-125.58 209.35,-123.63 216.27,-131.64 219.76,-125.58"/>
</g>
<!-- 03&#45;&gt;495 -->
<g id="edge20" class="edge">
<title>03&#45;&gt;495</title>
<path fill="none" stroke="red" stroke-width="0.23" d="M571.65,-169.37C568.83,-168.38 565.84,-167.44 563,-166.75 441.08,-137.13 400.41,-175 283,-130.75 281.38,-130.14 279.77,-129.43 278.17,-128.65"/>
<polygon fill="red" stroke="red" stroke-width="0.23" points="279.78,-125.53 269.38,-123.55 276.27,-131.59 279.78,-125.53"/>
</g>
<!-- 03&#45;&gt;497 -->
<g id="edge21" class="edge">
<title>03&#45;&gt;497</title>
<path fill="none" stroke="red" stroke-width="0.3" d="M571.63,-169.44C568.81,-168.45 565.83,-167.49 563,-166.75 467.14,-141.71 435.1,-167.28 343,-130.75 341.39,-130.12 339.79,-129.38 338.2,-128.58"/>
<polygon fill="red" stroke="red" stroke-width="0.3" points="339.82,-125.47 329.42,-123.44 336.28,-131.51 339.82,-125.47"/>
</g>
<!-- 03&#45;&gt;498 -->
<g id="edge22" class="edge">
<title>03&#45;&gt;498</title>
<path fill="none" stroke="red" stroke-width="0.2" d="M571.59,-169.57C568.78,-168.57 565.81,-167.58 563,-166.75 493.05,-146.26 469.93,-159.61 403,-130.75 401.41,-130.07 399.82,-129.3 398.25,-128.47"/>
<polygon fill="red" stroke="red" stroke-width="0.2" points="399.88,-125.37 389.5,-123.24 396.29,-131.38 399.88,-125.37"/>
</g>
<!-- 03&#45;&gt;499 -->
<g id="edge23" class="edge">
<title>03&#45;&gt;499</title>
<path fill="none" stroke="red" stroke-width="0.39" d="M571.97,-170.01C569.02,-168.94 565.9,-167.8 563,-166.75 518.58,-150.68 505.13,-152.11 463,-130.75 461.46,-129.97 459.9,-129.12 458.35,-128.24"/>
<polygon fill="red" stroke="red" stroke-width="0.39" points="460.03,-125.15 449.69,-122.84 456.33,-131.1 460.03,-125.15"/>
</g>
<!-- 03&#45;&gt;500 -->
<g id="edge24" class="edge">
<title>03&#45;&gt;500</title>
<path fill="none" stroke="green" stroke-width="0.28" d="M573.35,-166.62C559.64,-157.05 536.46,-140.88 518.52,-128.35"/>
<polygon fill="green" stroke="green" stroke-width="0.28" points="520.39,-125.39 510.19,-122.54 516.39,-131.13 520.39,-125.39"/>
</g>
<!-- 10 -->
<g id="node5" class="node">
<title>10</title>
<polygon fill="lightgray" stroke="black" points="642,-184.75 616,-184.75 616,-166.75 642,-166.75 642,-184.75"/>
<text text-anchor="middle" x="629" y="-173.55" font-family="Times,serif" font-size="9.00">10</text>
</g>
<!-- 10&#45;&gt;494 -->
<g id="edge25" class="edge">
<title>10&#45;&gt;494</title>
<path fill="none" stroke="red" stroke-width="0.42" d="M615.67,-169.29C612.84,-168.31 609.85,-167.39 607,-166.75 439.76,-129.16 384.42,-188.43 223,-130.75 221.33,-130.16 219.67,-129.45 218.03,-128.66"/>
<polygon fill="red" stroke="red" stroke-width="0.42" points="219.43,-125.42 209.02,-123.46 215.93,-131.49 219.43,-125.42"/>
</g>
<!-- 10&#45;&gt;495 -->
<g id="edge26" class="edge">
<title>10&#45;&gt;495</title>
<path fill="none" stroke="green" stroke-width="0.37" d="M615.66,-169.33C612.84,-168.34 609.85,-167.42 607,-166.75 465.92,-133.76 419.01,-180.68 283,-130.75 281.38,-130.16 279.76,-129.46 278.16,-128.68"/>
<polygon fill="green" stroke="green" stroke-width="0.37" points="279.77,-125.57 269.35,-123.61 276.27,-131.63 279.77,-125.57"/>
</g>
<!-- 10&#45;&gt;497 -->
<g id="edge27" class="edge">
<title>10&#45;&gt;497</title>
<path fill="none" stroke="red" stroke-width="0.17" d="M615.64,-169.38C612.82,-168.39 609.84,-167.45 607,-166.75 492.04,-138.36 453.65,-172.94 343,-130.75 341.39,-130.14 339.77,-129.42 338.18,-128.63"/>
<polygon fill="red" stroke="red" stroke-width="0.17" points="339.79,-125.52 329.39,-123.53 336.28,-131.57 339.79,-125.52"/>
</g>
<!-- 10&#45;&gt;498 -->
<g id="edge28" class="edge">
<title>10&#45;&gt;498</title>
<path fill="none" stroke="green" stroke-width="0.38" d="M615.62,-169.47C612.8,-168.47 609.83,-167.51 607,-166.75 518.07,-142.93 488.37,-165.23 403,-130.75 401.4,-130.11 399.8,-129.36 398.21,-128.56"/>
<polygon fill="green" stroke="green" stroke-width="0.38" points="399.83,-125.45 389.44,-123.4 396.28,-131.48 399.83,-125.45"/>
</g>
<!-- 10&#45;&gt;499 -->
<g id="edge29" class="edge">
<title>10&#45;&gt;499</title>
<path fill="none" stroke="green" stroke-width="0.42" d="M615.58,-169.62C612.76,-168.62 609.8,-167.61 607,-166.75 543.92,-147.45 523.26,-157.59 463,-130.75 461.42,-130.05 459.84,-129.26 458.26,-128.42"/>
<polygon fill="green" stroke="green" stroke-width="0.42" points="459.91,-125.33 449.53,-123.17 456.3,-131.32 459.91,-125.33"/>
</g>
<!-- 10&#45;&gt;500 -->
<g id="edge30" class="edge">
<title>10&#45;&gt;500</title>
<path fill="none" stroke="red" stroke-width="0.38" d="M615.96,-168.6C594.22,-158.33 550.09,-137.49 521.04,-123.78"/>
<polygon fill="red" stroke="red" stroke-width="0.38" points="522.35,-120.53 511.82,-119.42 519.36,-126.86 522.35,-120.53"/>
</g>
<!-- 11 -->
<g id="node6" class="node">
<title>11</title>
<polygon fill="lightgray" stroke="black" points="686,-184.75 660,-184.75 660,-166.75 686,-166.75 686,-184.75"/>
<text text-anchor="middle" x="673" y="-173.55" font-family="Times,serif" font-size="9.00">11</text>
</g>
<!-- 11&#45;&gt;494 -->
<g id="edge31" class="edge">
<title>11&#45;&gt;494</title>
<path fill="none" stroke="red" stroke-width="0.41" d="M659.67,-169.27C656.85,-168.29 653.86,-167.38 651,-166.75 464.56,-125.78 403.07,-194.13 223,-130.75 221.33,-130.16 219.66,-129.46 218.02,-128.67"/>
<polygon fill="red" stroke="red" stroke-width="0.41" points="219.42,-125.44 209.01,-123.49 215.93,-131.51 219.42,-125.44"/>
</g>
<!-- 11&#45;&gt;495 -->
<g id="edge32" class="edge">
<title>11&#45;&gt;495</title>
<path fill="none" stroke="green" stroke-width="0.36" d="M659.66,-169.3C656.84,-168.32 653.85,-167.4 651,-166.75 490.74,-130.39 437.64,-186.36 283,-130.75 281.33,-130.15 279.67,-129.44 278.03,-128.65"/>
<polygon fill="green" stroke="green" stroke-width="0.36" points="279.43,-125.41 269.02,-123.44 275.93,-131.48 279.43,-125.41"/>
</g>
<!-- 11&#45;&gt;497 -->
<g id="edge33" class="edge">
<title>11&#45;&gt;497</title>
<path fill="none" stroke="red" stroke-width="0.41" d="M659.65,-169.34C656.83,-168.35 653.85,-167.43 651,-166.75 516.89,-134.99 472.24,-178.61 343,-130.75 341.38,-130.15 339.76,-129.45 338.16,-128.67"/>
<polygon fill="red" stroke="red" stroke-width="0.41" points="339.77,-125.56 329.36,-123.59 336.27,-131.62 339.77,-125.56"/>
</g>
<!-- 11&#45;&gt;498 -->
<g id="edge34" class="edge">
<title>11&#45;&gt;498</title>
<path fill="none" stroke="red" stroke-width="0.38" d="M659.64,-169.4C656.82,-168.41 653.84,-167.47 651,-166.75 542.99,-139.58 506.9,-170.88 403,-130.75 401.39,-130.13 399.78,-129.41 398.19,-128.62"/>
<polygon fill="red" stroke="red" stroke-width="0.38" points="399.8,-125.51 389.4,-123.5 396.28,-131.55 399.8,-125.51"/>
</g>
<!-- 11&#45;&gt;499 -->
<g id="edge35" class="edge">
<title>11&#45;&gt;499</title>
<path fill="none" stroke="red" stroke-width="0.11" d="M659.61,-169.5C656.8,-168.5 653.82,-167.53 651,-166.75 568.99,-144.14 541.65,-163.18 463,-130.75 461.4,-130.09 459.8,-129.34 458.22,-128.53"/>
<polygon fill="red" stroke="red" stroke-width="0.11" points="459.85,-125.42 449.46,-123.35 456.28,-131.45 459.85,-125.42"/>
</g>
<!-- 11&#45;&gt;500 -->
<g id="edge36" class="edge">
<title>11&#45;&gt;500</title>
<path fill="none" stroke="red" stroke-width="0.13" d="M659.98,-170C657.03,-168.93 653.91,-167.8 651,-166.75 606.25,-150.66 554.29,-132.22 522.54,-120.98"/>
<polygon fill="red" stroke="red" stroke-width="0.13" points="523.56,-117.63 512.97,-117.59 521.23,-124.23 523.56,-117.63"/>
</g>
<!-- 12 -->
<g id="node7" class="node">
<title>12</title>
<polygon fill="lightgray" stroke="black" points="26,-184.75 0,-184.75 0,-166.75 26,-166.75 26,-184.75"/>
<text text-anchor="middle" x="13" y="-173.55" font-family="Times,serif" font-size="9.00">12</text>
</g>
<!-- 12&#45;&gt;494 -->
<g id="edge37" class="edge">
<title>12&#45;&gt;494</title>
<path fill="none" stroke="red" stroke-width="0.26" d="M26.02,-170C28.97,-168.93 32.09,-167.8 35,-166.75 79.75,-150.66 131.71,-132.22 163.46,-120.98"/>
<polygon fill="red" stroke="red" stroke-width="0.26" points="164.77,-124.23 173.03,-117.59 162.44,-117.63 164.77,-124.23"/>
</g>
<!-- 12&#45;&gt;495 -->
<g id="edge38" class="edge">
<title>12&#45;&gt;495</title>
<path fill="none" stroke="green" stroke-width="0.16" d="M26.39,-169.5C29.2,-168.5 32.18,-167.53 35,-166.75 117.01,-144.14 144.35,-163.18 223,-130.75 224.6,-130.09 226.2,-129.34 227.78,-128.53"/>
<polygon fill="green" stroke="green" stroke-width="0.16" points="229.72,-131.45 236.54,-123.35 226.15,-125.42 229.72,-131.45"/>
</g>
<!-- 12&#45;&gt;497 -->
<g id="edge39" class="edge">
<title>12&#45;&gt;497</title>
<path fill="none" stroke="green" stroke-width="0.5" d="M26.36,-169.4C29.18,-168.41 32.16,-167.47 35,-166.75 143.01,-139.58 179.1,-170.88 283,-130.75 284.61,-130.13 286.22,-129.41 287.81,-128.62"/>
<polygon fill="green" stroke="green" stroke-width="0.5" points="289.72,-131.55 296.6,-123.5 286.2,-125.51 289.72,-131.55"/>
</g>
<!-- 12&#45;&gt;498 -->
<g id="edge40" class="edge">
<title>12&#45;&gt;498</title>
<path fill="none" stroke="red" stroke-width="0.53" d="M26.35,-169.34C29.17,-168.35 32.15,-167.43 35,-166.75 169.11,-134.99 213.76,-178.61 343,-130.75 344.62,-130.15 346.24,-129.45 347.84,-128.67"/>
<polygon fill="red" stroke="red" stroke-width="0.53" points="349.73,-131.62 356.64,-123.59 346.23,-125.56 349.73,-131.62"/>
</g>
<!-- 12&#45;&gt;499 -->
<g id="edge41" class="edge">
<title>12&#45;&gt;499</title>
<path fill="none" stroke="red" stroke-width="0.22" d="M26.34,-169.3C29.16,-168.32 32.15,-167.4 35,-166.75 195.26,-130.39 248.36,-186.36 403,-130.75 404.67,-130.15 406.33,-129.44 407.97,-128.65"/>
<polygon fill="red" stroke="red" stroke-width="0.22" points="410.07,-131.48 416.98,-123.44 406.57,-125.41 410.07,-131.48"/>
</g>
<!-- 12&#45;&gt;500 -->
<g id="edge42" class="edge">
<title>12&#45;&gt;500</title>
<path fill="none" stroke="green" stroke-width="0.14" d="M26.33,-169.27C29.15,-168.29 32.14,-167.38 35,-166.75 221.44,-125.78 282.93,-194.13 463,-130.75 464.67,-130.16 466.34,-129.46 467.98,-128.67"/>
<polygon fill="green" stroke="green" stroke-width="0.14" points="470.07,-131.51 476.99,-123.49 466.58,-125.44 470.07,-131.51"/>
</g>
<!-- 13 -->
<g id="node8" class="node">
<title>13</title>
<polygon fill="lightgray" stroke="black" points="70,-184.75 44,-184.75 44,-166.75 70,-166.75 70,-184.75"/>
<text text-anchor="middle" x="57" y="-173.55" font-family="Times,serif" font-size="9.00">13</text>
</g>
<!-- 13&#45;&gt;494 -->
<g id="edge43" class="edge">
<title>13&#45;&gt;494</title>
<path fill="none" stroke="red" stroke-width="0.17" d="M70.04,-168.6C91.78,-158.33 135.91,-137.49 164.96,-123.78"/>
<polygon fill="red" stroke="red" stroke-width="0.17" points="166.64,-126.86 174.18,-119.42 163.65,-120.53 166.64,-126.86"/>
</g>
<!-- 13&#45;&gt;495 -->
<g id="edge44" class="edge">
<title>13&#45;&gt;495</title>
<path fill="none" stroke="green" stroke-width="0.16" d="M70.42,-169.62C73.24,-168.62 76.2,-167.61 79,-166.75 142.08,-147.45 162.74,-157.59 223,-130.75 224.58,-130.05 226.16,-129.26 227.74,-128.42"/>
<polygon fill="green" stroke="green" stroke-width="0.16" points="229.7,-131.32 236.47,-123.17 226.09,-125.33 229.7,-131.32"/>
</g>
<!-- 13&#45;&gt;497 -->
<g id="edge45" class="edge">
<title>13&#45;&gt;497</title>
<path fill="none" stroke="red" stroke-width="0.44" d="M70.38,-169.47C73.2,-168.47 76.17,-167.51 79,-166.75 167.93,-142.93 197.63,-165.23 283,-130.75 284.6,-130.11 286.2,-129.36 287.79,-128.56"/>
<polygon fill="red" stroke="red" stroke-width="0.44" points="289.72,-131.48 296.56,-123.4 286.17,-125.45 289.72,-131.48"/>
</g>
<!-- 13&#45;&gt;498 -->
<g id="edge46" class="edge">
<title>13&#45;&gt;498</title>
<path fill="none" stroke="green" stroke-width="0.21" d="M70.36,-169.38C73.18,-168.39 76.16,-167.45 79,-166.75 193.96,-138.36 232.35,-172.94 343,-130.75 344.61,-130.14 346.23,-129.42 347.82,-128.63"/>
<polygon fill="green" stroke="green" stroke-width="0.21" points="349.72,-131.57 356.61,-123.53 346.21,-125.52 349.72,-131.57"/>
</g>
<!-- 13&#45;&gt;499 -->
<g id="edge47" class="edge">
<title>13&#45;&gt;499</title>
<path fill="none" stroke="red" stroke-width="0.37" d="M70.34,-169.33C73.16,-168.34 76.15,-167.42 79,-166.75 220.08,-133.76 266.99,-180.68 403,-130.75 404.62,-130.16 406.24,-129.46 407.84,-128.68"/>
<polygon fill="red" stroke="red" stroke-width="0.37" points="409.73,-131.63 416.65,-123.61 406.23,-125.57 409.73,-131.63"/>
</g>
<!-- 13&#45;&gt;500 -->
<g id="edge48" class="edge">
<title>13&#45;&gt;500</title>
<path fill="none" stroke="green" stroke-width="0.34" d="M70.33,-169.29C73.16,-168.31 76.15,-167.39 79,-166.75 246.24,-129.16 301.58,-188.43 463,-130.75 464.67,-130.16 466.33,-129.45 467.97,-128.66"/>
<polygon fill="green" stroke="green" stroke-width="0.34" points="470.07,-131.49 476.98,-123.46 466.57,-125.42 470.07,-131.49"/>
</g>
<!-- 20 -->
<g id="node9" class="node">
<title>20</title>
<polygon fill="lightgray" stroke="black" points="114,-184.75 88,-184.75 88,-166.75 114,-166.75 114,-184.75"/>
<text text-anchor="middle" x="101" y="-173.55" font-family="Times,serif" font-size="9.00">20</text>
</g>
<!-- 20&#45;&gt;494 -->
<g id="edge49" class="edge">
<title>20&#45;&gt;494</title>
<path fill="none" stroke="green" stroke-width="0.5" d="M112.65,-166.62C126.36,-157.05 149.54,-140.88 167.48,-128.35"/>
<polygon fill="green" stroke="green" stroke-width="0.5" points="169.61,-131.13 175.81,-122.54 165.61,-125.39 169.61,-131.13"/>
</g>
<!-- 20&#45;&gt;495 -->
<g id="edge50" class="edge">
<title>20&#45;&gt;495</title>
<path fill="none" stroke="green" stroke-width="0.23" d="M114.03,-170.01C116.98,-168.94 120.1,-167.8 123,-166.75 167.42,-150.68 180.87,-152.11 223,-130.75 224.54,-129.97 226.1,-129.12 227.65,-128.24"/>
<polygon fill="green" stroke="green" stroke-width="0.23" points="229.67,-131.1 236.31,-122.84 225.97,-125.15 229.67,-131.1"/>
</g>
<!-- 20&#45;&gt;497 -->
<g id="edge51" class="edge">
<title>20&#45;&gt;497</title>
<path fill="none" stroke="red" stroke-width="0.41" d="M114.41,-169.57C117.22,-168.57 120.19,-167.58 123,-166.75 192.95,-146.26 216.07,-159.61 283,-130.75 284.59,-130.07 286.18,-129.3 287.75,-128.47"/>
<polygon fill="red" stroke="red" stroke-width="0.41" points="289.71,-131.38 296.5,-123.24 286.12,-125.37 289.71,-131.38"/>
</g>
<!-- 20&#45;&gt;498 -->
<g id="edge52" class="edge">
<title>20&#45;&gt;498</title>
<path fill="none" stroke="green" stroke-width="0.12" d="M114.37,-169.44C117.19,-168.45 120.17,-167.49 123,-166.75 218.86,-141.71 250.9,-167.28 343,-130.75 344.61,-130.12 346.21,-129.38 347.8,-128.58"/>
<polygon fill="green" stroke="green" stroke-width="0.12" points="349.72,-131.51 356.58,-123.44 346.18,-125.47 349.72,-131.51"/>
</g>
<!-- 20&#45;&gt;499 -->
<g id="edge53" class="edge">
<title>20&#45;&gt;499</title>
<path fill="none" stroke="green" stroke-width="0.15" d="M114.35,-169.37C117.17,-168.38 120.16,-167.44 123,-166.75 244.92,-137.13 285.59,-175 403,-130.75 404.62,-130.14 406.23,-129.43 407.83,-128.65"/>
<polygon fill="green" stroke="green" stroke-width="0.15" points="409.73,-131.59 416.62,-123.55 406.22,-125.53 409.73,-131.59"/>
</g>
<!-- 20&#45;&gt;500 -->
<g id="edge54" class="edge">
<title>20&#45;&gt;500</title>
<path fill="none" stroke="red" stroke-width="0.31" d="M114.34,-169.32C117.16,-168.33 120.15,-167.41 123,-166.75 271.05,-132.53 320.22,-182.74 463,-130.75 464.62,-130.16 466.24,-129.46 467.84,-128.69"/>
<polygon fill="red" stroke="red" stroke-width="0.31" points="469.73,-131.64 476.65,-123.63 466.24,-125.58 469.73,-131.64"/>
</g>
<!-- 21 -->
<g id="node10" class="node">
<title>21</title>
<polygon fill="lightgray" stroke="black" points="158,-184.75 132,-184.75 132,-166.75 158,-166.75 158,-184.75"/>
<text text-anchor="middle" x="145" y="-173.55" font-family="Times,serif" font-size="9.00">21</text>
</g>
<!-- 21&#45;&gt;494 -->
<g id="edge55" class="edge">
<title>21&#45;&gt;494</title>
<path fill="none" stroke="red" stroke-width="0.52" d="M151.08,-166.62C156.99,-158.71 166.27,-146.3 174.6,-135.16"/>
<polygon fill="red" stroke="red" stroke-width="0.52" points="177.52,-137.09 180.71,-126.99 171.92,-132.9 177.52,-137.09"/>
</g>
<!-- 21&#45;&gt;495 -->
<g id="edge56" class="edge">
<title>21&#45;&gt;495</title>
<path fill="none" stroke="red" stroke-width="0.46" d="M158.16,-167.74C173.81,-159.31 200.64,-144.56 223,-130.75 224.47,-129.84 225.97,-128.9 227.48,-127.93"/>
<polygon fill="red" stroke="red" stroke-width="0.46" points="229.58,-130.74 236.02,-122.32 225.74,-124.89 229.58,-130.74"/>
</g>
<!-- 21&#45;&gt;497 -->
<g id="edge57" class="edge">
<title>21&#45;&gt;497</title>
<path fill="none" stroke="green" stroke-width="0.15" d="M158.46,-169.74C161.27,-168.73 164.23,-167.69 167,-166.75 218.16,-149.52 234.32,-154.08 283,-130.75 284.56,-130.01 286.13,-129.19 287.69,-128.32"/>
<polygon fill="green" stroke="green" stroke-width="0.15" points="289.69,-131.2 296.38,-122.99 286.03,-125.23 289.69,-131.2"/>
</g>
<!-- 21&#45;&gt;498 -->
<g id="edge58" class="edge">
<title>21&#45;&gt;498</title>
<path fill="none" stroke="red" stroke-width="0.22" d="M158.39,-169.53C161.21,-168.53 164.18,-167.55 167,-166.75 243.84,-145.05 269.38,-161.65 343,-130.75 344.59,-130.08 346.19,-129.33 347.77,-128.51"/>
<polygon fill="red" stroke="red" stroke-width="0.22" points="349.71,-131.42 356.53,-123.31 346.14,-125.4 349.71,-131.42"/>
</g>
<!-- 21&#45;&gt;499 -->
<g id="edge59" class="edge">
<title>21&#45;&gt;499</title>
<path fill="none" stroke="red" stroke-width="0.18" d="M158.36,-169.42C161.18,-168.43 164.16,-167.48 167,-166.75 269.8,-140.49 304.16,-169.33 403,-130.75 404.61,-130.12 406.22,-129.4 407.81,-128.6"/>
<polygon fill="red" stroke="red" stroke-width="0.18" points="409.72,-131.54 416.59,-123.47 406.19,-125.49 409.72,-131.54"/>
</g>
<!-- 21&#45;&gt;500 -->
<g id="edge60" class="edge">
<title>21&#45;&gt;500</title>
<path fill="none" stroke="green" stroke-width="0.29" d="M158.35,-169.35C161.17,-168.36 164.15,-167.43 167,-166.75 295.89,-135.91 338.83,-177.06 463,-130.75 464.62,-130.15 466.23,-129.44 467.83,-128.66"/>
<polygon fill="green" stroke="green" stroke-width="0.29" points="469.73,-131.61 476.63,-123.57 466.22,-125.55 469.73,-131.61"/>
</g>
<!-- 22 -->
<g id="node11" class="node">
<title>22</title>
<polygon fill="lightgray" stroke="black" points="202,-184.75 176,-184.75 176,-166.75 202,-166.75 202,-184.75"/>
<text text-anchor="middle" x="189" y="-173.55" font-family="Times,serif" font-size="9.00">22</text>
</g>
<!-- 22&#45;&gt;494 -->
<g id="edge61" class="edge">
<title>22&#45;&gt;494</title>
<path fill="none" stroke="red" stroke-width="0.37" d="M189.51,-166.62C189.92,-160.03 190.52,-150.3 191.12,-140.79"/>
<polygon fill="red" stroke="red" stroke-width="0.37" points="194.61,-140.92 191.74,-130.72 187.63,-140.48 194.61,-140.92"/>
</g>
<!-- 22&#45;&gt;495 -->
<g id="edge62" class="edge">
<title>22&#45;&gt;495</title>
<path fill="none" stroke="green" stroke-width="0.3" d="M197.11,-166.62C205.6,-158.09 219.33,-144.33 231.05,-132.57"/>
<polygon fill="green" stroke="green" stroke-width="0.3" points="233.8,-134.76 238.38,-125.2 228.85,-129.82 233.8,-134.76"/>
</g>
<!-- 22&#45;&gt;497 -->
<g id="edge63" class="edge">
<title>22&#45;&gt;497</title>
<path fill="none" stroke="green" stroke-width="0.37" d="M202.09,-169.39C220.55,-161.66 255.09,-146.56 283,-130.75 284.5,-129.9 286.03,-129 287.56,-128.07"/>
<polygon fill="green" stroke="green" stroke-width="0.37" points="289.63,-130.9 296.16,-122.55 285.85,-125 289.63,-130.9"/>
</g>
<!-- 22&#45;&gt;498 -->
<g id="edge64" class="edge">
<title>22&#45;&gt;498</title>
<path fill="none" stroke="red" stroke-width="0.25" d="M202.44,-169.67C205.25,-168.66 208.21,-167.64 211,-166.75 268.96,-148.35 287.72,-156.08 343,-130.75 344.57,-130.03 346.15,-129.23 347.72,-128.38"/>
<polygon fill="red" stroke="red" stroke-width="0.25" points="349.7,-131.27 356.43,-123.1 346.07,-125.29 349.7,-131.27"/>
</g>
<!-- 22&#45;&gt;499 -->
<g id="edge65" class="edge">
<title>22&#45;&gt;499</title>
<path fill="none" stroke="red" stroke-width="0.25" d="M202.38,-169.49C205.2,-168.5 208.18,-167.52 211,-166.75 294.74,-143.84 322.67,-163.69 403,-130.75 404.6,-130.1 406.2,-129.35 407.78,-128.54"/>
<polygon fill="red" stroke="red" stroke-width="0.25" points="409.72,-131.46 416.55,-123.36 406.16,-125.43 409.72,-131.46"/>
</g>
<!-- 22&#45;&gt;500 -->
<g id="edge66" class="edge">
<title>22&#45;&gt;500</title>
<path fill="none" stroke="red" stroke-width="0.18" d="M202.36,-169.4C205.18,-168.41 208.16,-167.46 211,-166.75 320.75,-139.27 357.41,-171.39 463,-130.75 464.61,-130.13 466.22,-129.41 467.82,-128.62"/>
<polygon fill="red" stroke="red" stroke-width="0.18" points="469.72,-131.56 476.61,-123.51 466.2,-125.51 469.72,-131.56"/>
</g>
<!-- 23 -->
<g id="node12" class="node">
<title>23</title>
<polygon fill="lightgray" stroke="black" points="246,-184.75 220,-184.75 220,-166.75 246,-166.75 246,-184.75"/>
<text text-anchor="middle" x="233" y="-173.55" font-family="Times,serif" font-size="9.00">23</text>
</g>
<!-- 23&#45;&gt;494 -->
<g id="edge67" class="edge">
<title>23&#45;&gt;494</title>
<path fill="none" stroke="green" stroke-width="0.24" d="M227.93,-166.62C223.24,-159.08 215.99,-147.44 209.31,-136.71"/>
<polygon fill="green" stroke="green" stroke-width="0.24" points="212.15,-134.67 203.9,-128.03 206.21,-138.37 212.15,-134.67"/>
</g>
<!-- 23&#45;&gt;495 -->
<g id="edge68" class="edge">
<title>23&#45;&gt;495</title>
<path fill="none" stroke="red" stroke-width="0.11" d="M235.53,-166.62C237.68,-159.74 240.89,-149.43 243.97,-139.53"/>
<polygon fill="red" stroke="red" stroke-width="0.11" points="247.34,-140.49 246.97,-129.9 240.65,-138.41 247.34,-140.49"/>
</g>
<!-- 23&#45;&gt;497 -->
<g id="edge69" class="edge">
<title>23&#45;&gt;497</title>
<path fill="none" stroke="red" stroke-width="0.16" d="M243.13,-166.62C254.56,-157.45 273.53,-142.22 288.82,-129.95"/>
<polygon fill="red" stroke="red" stroke-width="0.16" points="291.26,-132.48 296.87,-123.49 286.88,-127.02 291.26,-132.48"/>
</g>
<!-- 23&#45;&gt;498 -->
<g id="edge70" class="edge">
<title>23&#45;&gt;498</title>
<path fill="none" stroke="green" stroke-width="0.1" d="M246.13,-169.9C271.29,-160.54 325.37,-140.08 343,-130.75 344.53,-129.94 346.07,-129.08 347.61,-128.17"/>
<polygon fill="green" stroke="green" stroke-width="0.1" points="349.66,-131.02 356.25,-122.73 345.93,-125.1 349.66,-131.02"/>
</g>
<!-- 23&#45;&gt;499 -->
<g id="edge71" class="edge">
<title>23&#45;&gt;499</title>
<path fill="none" stroke="red" stroke-width="0.11" d="M246.42,-169.61C249.23,-168.6 252.2,-167.6 255,-166.75 319.8,-147.16 341.07,-158.09 403,-130.75 404.58,-130.05 406.17,-129.27 407.74,-128.44"/>
<polygon fill="red" stroke="red" stroke-width="0.11" points="409.71,-131.34 416.48,-123.19 406.1,-125.34 409.71,-131.34"/>
</g>
<!-- 23&#45;&gt;500 -->
<g id="edge72" class="edge">
<title>23&#45;&gt;500</title>
<path fill="none" stroke="green" stroke-width="0.48" d="M246.38,-169.46C249.19,-168.47 252.17,-167.5 255,-166.75 345.66,-142.63 375.95,-165.74 463,-130.75 464.6,-130.11 466.21,-129.37 467.79,-128.56"/>
<polygon fill="green" stroke="green" stroke-width="0.48" points="469.72,-131.49 476.57,-123.41 466.17,-125.46 469.72,-131.49"/>
</g>
<!-- 30 -->
<g id="node13" class="node">
<title>30</title>
<polygon fill="lightgray" stroke="black" points="290,-184.75 264,-184.75 264,-166.75 290,-166.75 290,-184.75"/>
<text text-anchor="middle" x="277" y="-173.55" font-family="Times,serif" font-size="9.00">30</text>
</g>
<!-- 30&#45;&gt;494 -->
<g id="edge73" class="edge">
<title>30&#45;&gt;494</title>
<path fill="none" stroke="green" stroke-width="0.21" d="M266.36,-166.62C254.18,-157.31 233.82,-141.75 217.64,-129.38"/>
<polygon fill="green" stroke="green" stroke-width="0.21" points="219.69,-126.54 209.62,-123.25 215.44,-132.1 219.69,-126.54"/>
</g>
<!-- 30&#45;&gt;495 -->
<g id="edge74" class="edge">
<title>30&#45;&gt;495</title>
<path fill="none" stroke="red" stroke-width="0.45" d="M273.96,-166.62C271.34,-159.61 267.4,-149.06 263.64,-139"/>
<polygon fill="red" stroke="red" stroke-width="0.45" points="266.92,-137.77 260.14,-129.63 260.36,-140.23 266.92,-137.77"/>
</g>
<!-- 30&#45;&gt;497 -->
<g id="edge75" class="edge">
<title>30&#45;&gt;497</title>
<path fill="none" stroke="red" stroke-width="0.36" d="M281.56,-166.62C285.72,-159.21 292.09,-147.83 298.02,-137.26"/>
<polygon fill="red" stroke="red" stroke-width="0.36" points="301.21,-138.73 303.05,-128.3 295.1,-135.31 301.21,-138.73"/>
</g>
<!-- 30&#45;&gt;498 -->
<g id="edge76" class="edge">
<title>30&#45;&gt;498</title>
<path fill="none" stroke="red" stroke-width="0.1" d="M289.18,-166.66C302.43,-157.85 324.24,-143.33 343,-130.75 344.43,-129.79 345.91,-128.8 347.39,-127.8"/>
<polygon fill="red" stroke="red" stroke-width="0.1" points="349.53,-130.58 355.88,-122.1 345.63,-124.78 349.53,-130.58"/>
</g>
<!-- 30&#45;&gt;499 -->
<g id="edge77" class="edge">
<title>30&#45;&gt;499</title>
<path fill="none" stroke="green" stroke-width="0.24" d="M290.02,-169.98C292.97,-168.91 296.09,-167.79 299,-166.75 345.1,-150.39 359.24,-152.6 403,-130.75 404.55,-129.98 406.1,-129.14 407.66,-128.26"/>
<polygon fill="green" stroke="green" stroke-width="0.24" points="409.68,-131.13 416.33,-122.88 405.99,-125.18 409.68,-131.13"/>
</g>
<!-- 30&#45;&gt;500 -->
<g id="edge78" class="edge">
<title>30&#45;&gt;500</title>
<path fill="none" stroke="green" stroke-width="0.11" d="M290.4,-169.56C293.22,-168.56 296.19,-167.57 299,-166.75 370.67,-145.96 394.4,-160.12 463,-130.75 464.59,-130.07 466.18,-129.31 467.76,-128.48"/>
<polygon fill="green" stroke="green" stroke-width="0.11" points="469.71,-131.39 476.51,-123.26 466.13,-125.38 469.71,-131.39"/>
</g>
<!-- 31 -->
<g id="node14" class="node">
<title>31</title>
<polygon fill="lightgray" stroke="black" points="334,-184.75 308,-184.75 308,-166.75 334,-166.75 334,-184.75"/>
<text text-anchor="middle" x="321" y="-173.55" font-family="Times,serif" font-size="9.00">31</text>
</g>
<!-- 31&#45;&gt;494 -->
<g id="edge79" class="edge">
<title>31&#45;&gt;494</title>
<path fill="none" stroke="red" stroke-width="0.22" d="M307.97,-169.73C288.87,-162.19 252.34,-147.07 223,-130.75 221.49,-129.91 219.96,-129.02 218.43,-128.1"/>
<polygon fill="red" stroke="red" stroke-width="0.22" points="220.13,-125.03 209.82,-122.6 216.36,-130.93 220.13,-125.03"/>
</g>
<!-- 31&#45;&gt;495 -->
<g id="edge80" class="edge">
<title>31&#45;&gt;495</title>
<path fill="none" stroke="red" stroke-width="0.39" d="M312.39,-166.62C303.15,-157.9 288.12,-143.7 275.48,-131.77"/>
<polygon fill="red" stroke="red" stroke-width="0.39" points="277.68,-129.03 268,-124.71 272.87,-134.12 277.68,-129.03"/>
</g>
<!-- 31&#45;&gt;497 -->
<g id="edge81" class="edge">
<title>31&#45;&gt;497</title>
<path fill="none" stroke="red" stroke-width="0.4" d="M319.99,-166.62C319.17,-160.03 317.95,-150.3 316.77,-140.79"/>
<polygon fill="red" stroke="red" stroke-width="0.4" points="320.22,-140.21 315.51,-130.72 313.28,-141.08 320.22,-140.21"/>
</g>
<!-- 31&#45;&gt;498 -->
<g id="edge82" class="edge">
<title>31&#45;&gt;498</title>
<path fill="none" stroke="green" stroke-width="0.3" d="M327.59,-166.62C334.14,-158.53 344.52,-145.71 353.7,-134.38"/>
<polygon fill="green" stroke="green" stroke-width="0.3" points="356.53,-136.44 360.1,-126.47 351.09,-132.04 356.53,-136.44"/>
</g>
<!-- 31&#45;&gt;499 -->
<g id="edge83" class="edge">
<title>31&#45;&gt;499</title>
<path fill="none" stroke="red" stroke-width="0.49" d="M334.01,-168.28C350.37,-160.03 379.2,-145.1 403,-130.75 404.48,-129.86 405.99,-128.93 407.5,-127.97"/>
<polygon fill="red" stroke="red" stroke-width="0.49" points="409.6,-130.78 416.06,-122.38 405.77,-124.92 409.6,-130.78"/>
</g>
<!-- 31&#45;&gt;500 -->
<g id="edge84" class="edge">
<title>31&#45;&gt;500</title>
<path fill="none" stroke="green" stroke-width="0.1" d="M334.45,-169.72C337.27,-168.71 340.22,-167.67 343,-166.75 395.85,-149.23 412.67,-154.58 463,-130.75 464.56,-130.01 466.13,-129.2 467.7,-128.34"/>
<polygon fill="green" stroke="green" stroke-width="0.1" points="469.69,-131.22 476.4,-123.02 466.04,-125.25 469.69,-131.22"/>
</g>
<!-- 32 -->
<g id="node15" class="node">
<title>32</title>
<polygon fill="lightgray" stroke="black" points="378,-184.75 352,-184.75 352,-166.75 378,-166.75 378,-184.75"/>
<text text-anchor="middle" x="365" y="-173.55" font-family="Times,serif" font-size="9.00">32</text>
</g>
<!-- 32&#45;&gt;494 -->
<g id="edge85" class="edge">
<title>32&#45;&gt;494</title>
<path fill="none" stroke="red" stroke-width="0.16" d="M351.55,-169.72C348.73,-168.71 345.78,-167.67 343,-166.75 290.15,-149.23 273.33,-154.58 223,-130.75 221.44,-130.01 219.87,-129.2 218.3,-128.34"/>
<polygon fill="red" stroke="red" stroke-width="0.16" points="219.96,-125.25 209.6,-123.02 216.31,-131.22 219.96,-125.25"/>
</g>
<!-- 32&#45;&gt;495 -->
<g id="edge86" class="edge">
<title>32&#45;&gt;495</title>
<path fill="none" stroke="red" stroke-width="0.13" d="M351.99,-168.28C335.63,-160.03 306.8,-145.1 283,-130.75 281.52,-129.86 280.01,-128.93 278.5,-127.97"/>
<polygon fill="red" stroke="red" stroke-width="0.13" points="280.23,-124.92 269.94,-122.38 276.4,-130.78 280.23,-124.92"/>
</g>
<!-- 32&#45;&gt;497 -->
<g id="edge87" class="edge">
<title>32&#45;&gt;497</title>
<path fill="none" stroke="red" stroke-width="0.32" d="M358.41,-166.62C351.86,-158.53 341.48,-145.71 332.3,-134.38"/>
<polygon fill="red" stroke="red" stroke-width="0.32" points="334.91,-132.04 325.9,-126.47 329.47,-136.44 334.91,-132.04"/>
</g>
<!-- 32&#45;&gt;498 -->
<g id="edge88" class="edge">
<title>32&#45;&gt;498</title>
<path fill="none" stroke="green" stroke-width="0.29" d="M366.01,-166.62C366.83,-160.03 368.05,-150.3 369.23,-140.79"/>
<polygon fill="green" stroke="green" stroke-width="0.29" points="372.72,-141.08 370.49,-130.72 365.78,-140.21 372.72,-141.08"/>
</g>
<!-- 32&#45;&gt;499 -->
<g id="edge89" class="edge">
<title>32&#45;&gt;499</title>
<path fill="none" stroke="green" stroke-width="0.45" d="M373.61,-166.62C382.85,-157.9 397.88,-143.7 410.52,-131.77"/>
<polygon fill="green" stroke="green" stroke-width="0.45" points="413.13,-134.12 418,-124.71 408.32,-129.03 413.13,-134.12"/>
</g>
<!-- 32&#45;&gt;500 -->
<g id="edge90" class="edge">
<title>32&#45;&gt;500</title>
<path fill="none" stroke="green" stroke-width="0.25" d="M378.03,-169.73C397.13,-162.19 433.66,-147.07 463,-130.75 464.51,-129.91 466.04,-129.02 467.57,-128.1"/>
<polygon fill="green" stroke="green" stroke-width="0.25" points="469.64,-130.93 476.18,-122.6 465.87,-125.03 469.64,-130.93"/>
</g>
<!-- 33 -->
<g id="node16" class="node">
<title>33</title>
<polygon fill="lightgray" stroke="black" points="422,-184.75 396,-184.75 396,-166.75 422,-166.75 422,-184.75"/>
<text text-anchor="middle" x="409" y="-173.55" font-family="Times,serif" font-size="9.00">33</text>
</g>
<!-- 33&#45;&gt;494 -->
<g id="edge91" class="edge">
<title>33&#45;&gt;494</title>
<path fill="none" stroke="green" stroke-width="0.1" d="M395.6,-169.56C392.78,-168.56 389.81,-167.57 387,-166.75 315.33,-145.96 291.6,-160.12 223,-130.75 221.41,-130.07 219.82,-129.31 218.24,-128.48"/>
<polygon fill="green" stroke="green" stroke-width="0.1" points="219.87,-125.38 209.49,-123.26 216.29,-131.39 219.87,-125.38"/>
</g>
<!-- 33&#45;&gt;495 -->
<g id="edge92" class="edge">
<title>33&#45;&gt;495</title>
<path fill="none" stroke="green" stroke-width="0.31" d="M395.98,-169.98C393.03,-168.91 389.91,-167.79 387,-166.75 340.9,-150.39 326.76,-152.6 283,-130.75 281.45,-129.98 279.9,-129.14 278.34,-128.26"/>
<polygon fill="green" stroke="green" stroke-width="0.31" points="280.01,-125.18 269.67,-122.88 276.32,-131.13 280.01,-125.18"/>
</g>
<!-- 33&#45;&gt;497 -->
<g id="edge93" class="edge">
<title>33&#45;&gt;497</title>
<path fill="none" stroke="green" stroke-width="0.25" d="M396.82,-166.66C383.57,-157.85 361.76,-143.33 343,-130.75 341.57,-129.79 340.09,-128.8 338.61,-127.8"/>
<polygon fill="green" stroke="green" stroke-width="0.25" points="340.37,-124.78 330.12,-122.1 336.47,-130.58 340.37,-124.78"/>
</g>
<!-- 33&#45;&gt;498 -->
<g id="edge94" class="edge">
<title>33&#45;&gt;498</title>
<path fill="none" stroke="green" stroke-width="0.56" d="M404.44,-166.62C400.28,-159.21 393.91,-147.83 387.98,-137.26"/>
<polygon fill="green" stroke="green" stroke-width="0.56" points="390.9,-135.31 382.95,-128.3 384.79,-138.73 390.9,-135.31"/>
</g>
<!-- 33&#45;&gt;499 -->
<g id="edge95" class="edge">
<title>33&#45;&gt;499</title>
<path fill="none" stroke="red" stroke-width="0.16" d="M412.04,-166.62C414.66,-159.61 418.6,-149.06 422.36,-139"/>
<polygon fill="red" stroke="red" stroke-width="0.16" points="425.64,-140.23 425.86,-129.63 419.08,-137.77 425.64,-140.23"/>
</g>
<!-- 33&#45;&gt;500 -->
<g id="edge96" class="edge">
<title>33&#45;&gt;500</title>
<path fill="none" stroke="red" stroke-width="0.21" d="M419.64,-166.62C431.82,-157.31 452.18,-141.75 468.36,-129.38"/>
<polygon fill="red" stroke="red" stroke-width="0.21" points="470.56,-132.1 476.38,-123.25 466.31,-126.54 470.56,-132.1"/>
</g>
<!-- left -->
<g id="node17" class="node">
<title>left</title>
<ellipse fill="lightblue" stroke="black" cx="375" cy="-26.16" rx="19.6" ry="19.6"/>
<text text-anchor="middle" x="375" y="-23.96" font-family="Times,serif" font-size="9.00">left</text>
</g>
<!-- right -->
<g id="node18" class="node">
<title>right</title>
<ellipse fill="lightblue" stroke="black" cx="436" cy="-26.16" rx="23.17" ry="23.17"/>
<text text-anchor="middle" x="436" y="-23.96" font-family="Times,serif" font-size="9.00">right</text>
</g>
<!-- up -->
<g id="node19" class="node">
<title>up</title>
<ellipse fill="lightblue" stroke="black" cx="248" cy="-26.16" rx="18.27" ry="18.27"/>
<text text-anchor="middle" x="248" y="-23.96" font-family="Times,serif" font-size="9.00">up</text>
</g>
<!-- down -->
<g id="node20" class="node">
<title>down</title>
<ellipse fill="lightblue" stroke="black" cx="311" cy="-26.16" rx="26.33" ry="26.33"/>
<text text-anchor="middle" x="311" y="-23.96" font-family="Times,serif" font-size="9.00">down</text>
</g>
<!-- 494&#45;&gt;left -->
<g id="edge97" class="edge">
<title>494&#45;&gt;left</title>
<path fill="none" stroke="green" stroke-width="0.16" d="M209.59,-96.04C213.82,-93.23 218.45,-90.46 223,-88.33 274.56,-64.13 296,-79.62 346,-52.33 348.58,-50.92 351.13,-49.25 353.58,-47.45"/>
<polygon fill="green" stroke="green" stroke-width="0.16" points="355.92,-50.06 361.47,-41.03 351.5,-44.63 355.92,-50.06"/>
</g>
<!-- 494&#45;&gt;right -->
<g id="edge98" class="edge">
<title>494&#45;&gt;right</title>
<path fill="none" stroke="green" stroke-width="0.31" d="M209.47,-95.75C213.69,-92.96 218.36,-90.26 223,-88.33 298.72,-56.79 329.49,-86.62 404,-52.33 406.36,-51.24 408.7,-49.95 410.98,-48.53"/>
<polygon fill="green" stroke="green" stroke-width="0.31" points="413.22,-51.23 419.38,-42.61 409.19,-45.51 413.22,-51.23"/>
</g>
<!-- 494&#45;&gt;up -->
<g id="edge99" class="edge">
<title>494&#45;&gt;up</title>
<path fill="none" stroke="red" stroke-width="0.41" d="M204.66,-91.28C212.71,-79.38 223.5,-63.42 232.3,-50.4"/>
<polygon fill="red" stroke="red" stroke-width="0.41" points="235.31,-52.19 238.01,-41.94 229.51,-48.27 235.31,-52.19"/>
</g>
<!-- 494&#45;&gt;down -->
<g id="edge100" class="edge">
<title>494&#45;&gt;down</title>
<path fill="none" stroke="green" stroke-width="0.29" d="M210.31,-96.74C226.93,-85.4 252.72,-67.75 275,-52.33 277.08,-50.88 279.24,-49.39 281.4,-47.88"/>
<polygon fill="green" stroke="green" stroke-width="0.29" points="283.5,-50.69 289.7,-42.1 279.5,-44.94 283.5,-50.69"/>
</g>
<!-- 495&#45;&gt;left -->
<g id="edge101" class="edge">
<title>495&#45;&gt;left</title>
<path fill="none" stroke="green" stroke-width="0.36" d="M269.99,-96.77C274.2,-93.95 278.73,-90.98 283,-88.33 310.39,-71.3 319.7,-70.98 346,-52.33 348.4,-50.63 350.83,-48.77 353.21,-46.85"/>
<polygon fill="green" stroke="green" stroke-width="0.36" points="355.61,-49.41 361,-40.28 351.1,-44.05 355.61,-49.41"/>
</g>
<!-- 495&#45;&gt;right -->
<g id="edge102" class="edge">
<title>495&#45;&gt;right</title>
<path fill="none" stroke="green" stroke-width="0.23" d="M269.6,-96.06C273.82,-93.25 278.46,-90.47 283,-88.33 333.74,-64.37 354.18,-78.12 404,-52.33 406.25,-51.16 408.5,-49.83 410.7,-48.4"/>
<polygon fill="green" stroke="green" stroke-width="0.23" points="412.79,-51.21 418.88,-42.54 408.71,-45.52 412.79,-51.21"/>
</g>
<!-- 495&#45;&gt;up -->
<g id="edge103" class="edge">
<title>495&#45;&gt;up</title>
<path fill="none" stroke="red" stroke-width="0.37" d="M251.74,-88C251.12,-77.98 250.37,-65.76 249.71,-54.92"/>
<polygon fill="red" stroke="red" stroke-width="0.37" points="253.18,-54.42 249.07,-44.66 246.19,-54.85 253.18,-54.42"/>
</g>
<!-- 495&#45;&gt;down -->
<g id="edge104" class="edge">
<title>495&#45;&gt;down</title>
<path fill="none" stroke="red" stroke-width="0.16" d="M265.02,-91.68C272.28,-81.49 281.74,-68.22 290.18,-56.37"/>
<polygon fill="red" stroke="red" stroke-width="0.16" points="293.16,-58.23 296.11,-48.05 287.46,-54.17 293.16,-58.23"/>
</g>
<!-- 497&#45;&gt;left -->
<g id="edge105" class="edge">
<title>497&#45;&gt;left</title>
<path fill="none" stroke="green" stroke-width="0.23" d="M325.55,-92.07C334.6,-80.19 346.96,-63.96 357.06,-50.71"/>
<polygon fill="green" stroke="green" stroke-width="0.23" points="360.03,-52.58 363.31,-42.51 354.47,-48.34 360.03,-52.58"/>
</g>
<!-- 497&#45;&gt;right -->
<g id="edge106" class="edge">
<title>497&#45;&gt;right</title>
<path fill="none" stroke="red" stroke-width="0.22" d="M330.02,-96.82C334.23,-93.99 338.75,-91.01 343,-88.33 369.62,-71.52 378.01,-70.09 404,-52.33 406.09,-50.89 408.23,-49.37 410.35,-47.81"/>
<polygon fill="red" stroke="red" stroke-width="0.22" points="412.54,-50.54 418.38,-41.7 408.3,-44.97 412.54,-50.54"/>
</g>
<!-- 497&#45;&gt;up -->
<g id="edge107" class="edge">
<title>497&#45;&gt;up</title>
<path fill="none" stroke="red" stroke-width="0.49" d="M300.16,-92.46C290.23,-80.03 276.38,-62.7 265.45,-49.01"/>
<polygon fill="red" stroke="red" stroke-width="0.49" points="268.06,-46.67 259.08,-41.04 262.59,-51.04 268.06,-46.67"/>
</g>
<!-- 497&#45;&gt;down -->
<g id="edge108" class="edge">
<title>497&#45;&gt;down</title>
<path fill="none" stroke="green" stroke-width="0.65" d="M312.5,-88C312.3,-80.22 312.08,-71.12 311.87,-62.37"/>
<polygon fill="green" stroke="green" stroke-width="0.65" points="315.36,-62.26 311.62,-52.35 308.37,-62.43 315.36,-62.26"/>
</g>
<!-- 498&#45;&gt;left -->
<g id="edge109" class="edge">
<title>498&#45;&gt;left</title>
<path fill="none" stroke="red" stroke-width="0.41" d="M373.5,-88C373.74,-78.33 374.03,-66.62 374.29,-56.07"/>
<polygon fill="red" stroke="red" stroke-width="0.41" points="377.79,-56.1 374.54,-46.02 370.79,-55.93 377.79,-56.1"/>
</g>
<!-- 498&#45;&gt;right -->
<g id="edge110" class="edge">
<title>498&#45;&gt;right</title>
<path fill="none" stroke="red" stroke-width="0.18" d="M385.75,-92.07C394.42,-80.87 406.07,-65.82 415.97,-53.03"/>
<polygon fill="red" stroke="red" stroke-width="0.18" points="418.82,-55.07 422.18,-45.02 413.29,-50.78 418.82,-55.07"/>
</g>
<!-- 498&#45;&gt;up -->
<g id="edge111" class="edge">
<title>498&#45;&gt;up</title>
<path fill="none" stroke="green" stroke-width="0.13" d="M356.06,-96.69C351.84,-93.87 347.3,-90.92 343,-88.33 314.06,-70.86 303.66,-71.76 276,-52.33 273.49,-50.56 270.97,-48.6 268.51,-46.58"/>
<polygon fill="green" stroke="green" stroke-width="0.13" points="270.39,-43.57 260.56,-39.62 265.78,-48.84 270.39,-43.57"/>
</g>
<!-- 498&#45;&gt;down -->
<g id="edge112" class="edge">
<title>498&#45;&gt;down</title>
<path fill="none" stroke="red" stroke-width="0.17" d="M360.45,-92.07C352.46,-81.58 341.9,-67.71 332.58,-55.49"/>
<polygon fill="red" stroke="red" stroke-width="0.17" points="335.23,-53.19 326.38,-47.35 329.66,-57.43 335.23,-53.19"/>
</g>
<!-- 499&#45;&gt;left -->
<g id="edge113" class="edge">
<title>499&#45;&gt;left</title>
<path fill="none" stroke="green" stroke-width="0.12" d="M420.98,-91.68C412.62,-79.95 401.36,-64.15 392.08,-51.12"/>
<polygon fill="green" stroke="green" stroke-width="0.12" points="394.68,-48.74 386.02,-42.63 388.98,-52.8 394.68,-48.74"/>
</g>
<!-- 499&#45;&gt;right -->
<g id="edge114" class="edge">
<title>499&#45;&gt;right</title>
<path fill="none" stroke="green" stroke-width="0.44" d="M433.76,-88C434.07,-79.43 434.45,-69.26 434.8,-59.71"/>
<polygon fill="green" stroke="green" stroke-width="0.44" points="438.3,-59.82 435.17,-49.7 431.3,-59.56 438.3,-59.82"/>
</g>
<!-- 499&#45;&gt;up -->
<g id="edge115" class="edge">
<title>499&#45;&gt;up</title>
<path fill="none" stroke="green" stroke-width="0.18" d="M416.42,-96.01C412.2,-93.21 407.56,-90.44 403,-88.33 349.78,-63.63 327.37,-80.67 276,-52.33 273.23,-50.8 270.5,-48.95 267.91,-46.95"/>
<polygon fill="green" stroke="green" stroke-width="0.18" points="270.01,-44.15 260.15,-40.29 265.46,-49.46 270.01,-44.15"/>
</g>
<!-- 499&#45;&gt;down -->
<g id="edge116" class="edge">
<title>499&#45;&gt;down</title>
<path fill="none" stroke="green" stroke-width="0.16" d="M415.92,-96.91C411.72,-94.07 407.21,-91.07 403,-88.33 377.91,-71.95 370.84,-69.08 346,-52.33 344.13,-51.07 342.22,-49.76 340.31,-48.43"/>
<polygon fill="green" stroke="green" stroke-width="0.16" points="342.14,-45.44 331.96,-42.54 338.11,-51.16 342.14,-45.44"/>
</g>
<!-- 500&#45;&gt;left -->
<g id="edge117" class="edge">
<title>500&#45;&gt;left</title>
<path fill="none" stroke="red" stroke-width="0.14" d="M475.95,-96.86C471.74,-94.03 467.23,-91.04 463,-88.33 437.14,-71.74 428.8,-70.45 404,-52.33 401.63,-50.59 399.21,-48.71 396.84,-46.78"/>
<polygon fill="red" stroke="red" stroke-width="0.14" points="398.96,-43.99 389.06,-40.2 394.44,-49.33 398.96,-43.99"/>
</g>
<!-- 500&#45;&gt;right -->
<g id="edge118" class="edge">
<title>500&#45;&gt;right</title>
<path fill="none" stroke="red" stroke-width="0.17" d="M481.19,-91.68C473.56,-80.78 463.46,-66.37 454.75,-53.93"/>
<polygon fill="red" stroke="red" stroke-width="0.17" points="457.59,-51.89 448.99,-45.7 451.86,-55.9 457.59,-51.89"/>
</g>
<!-- 500&#45;&gt;up -->
<g id="edge119" class="edge">
<title>500&#45;&gt;up</title>
<path fill="none" stroke="red" stroke-width="0.34" d="M476.54,-95.73C472.32,-92.94 467.64,-90.24 463,-88.33 384.77,-56.03 351.8,-89.99 276,-52.33 273.16,-50.92 270.4,-49.14 267.78,-47.19"/>
<polygon fill="red" stroke="red" stroke-width="0.34" points="269.88,-44.38 260,-40.57 265.35,-49.71 269.88,-44.38"/>
</g>
<!-- 500&#45;&gt;down -->
<g id="edge120" class="edge">
<title>500&#45;&gt;down</title>
<path fill="none" stroke="red" stroke-width="0.22" d="M476.39,-96.09C472.16,-93.28 467.53,-90.49 463,-88.33 413.91,-64.87 394.73,-76.52 346,-52.33 343.93,-51.3 341.85,-50.15 339.79,-48.93"/>
<polygon fill="red" stroke="red" stroke-width="0.22" points="341.32,-45.75 331.02,-43.24 337.5,-51.62 341.32,-45.75"/>
</g>
</g>
</svg>
