<?xml version="1.0" encoding="UTF-8" standalone="no"?>
<!DOCTYPE svg PUBLIC "-//W3C//DTD SVG 1.1//EN"
 "http://www.w3.org/Graphics/SVG/1.1/DTD/svg11.dtd">
<!-- Generated by graphviz version 2.44.1 (20200629.0846)
 -->
<!-- Pages: 1 -->
<svg width="694pt" height="193pt"
 viewBox="0.00 0.00 694.00 192.75" xmlns="http://www.w3.org/2000/svg" xmlns:xlink="http://www.w3.org/1999/xlink">
<g id="graph0" class="graph" transform="scale(1 1) rotate(0) translate(4 188.75)">
<polygon fill="white" stroke="transparent" points="-4,4 -4,-188.75 690,-188.75 690,4 -4,4"/>
<!-- 00 -->
<g id="node1" class="node">
<title>00</title>
<polygon fill="lightgray" stroke="black" points="466,-184.75 440,-184.75 440,-166.75 466,-166.75 466,-184.75"/>
<text text-anchor="middle" x="453" y="-173.55" font-family="Times,serif" font-size="9.00">00</text>
</g>
<!-- 403 -->
<g id="node21" class="node">
<title>403</title>
<ellipse fill="white" stroke="black" cx="223" cy="-109.54" rx="21.43" ry="21.43"/>
<text text-anchor="middle" x="223" y="-107.34" font-family="Times,serif" font-size="9.00">403</text>
</g>
<!-- 00&#45;&gt;403 -->
<g id="edge1" class="edge">
<title>00&#45;&gt;403</title>
<path fill="none" stroke="green" stroke-width="0.2" d="M439.61,-169.52C436.79,-168.52 433.82,-167.54 431,-166.75 353.3,-144.9 327.46,-161.9 253,-130.75 251.41,-130.09 249.81,-129.33 248.23,-128.51"/>
<polygon fill="green" stroke="green" stroke-width="0.2" points="249.86,-125.41 239.47,-123.31 246.29,-131.43 249.86,-125.41"/>
</g>
<!-- 404 -->
<g id="node22" class="node">
<title>404</title>
<ellipse fill="white" stroke="black" cx="283" cy="-109.54" rx="21.43" ry="21.43"/>
<text text-anchor="middle" x="283" y="-107.34" font-family="Times,serif" font-size="9.00">404</text>
</g>
<!-- 00&#45;&gt;404 -->
<g id="edge2" class="edge">
<title>00&#45;&gt;404</title>
<path fill="none" stroke="green" stroke-width="0.21" d="M439.54,-169.73C436.73,-168.72 433.78,-167.68 431,-166.75 378.99,-149.38 362.5,-154.33 313,-130.75 311.44,-130.01 309.87,-129.19 308.31,-128.33"/>
<polygon fill="green" stroke="green" stroke-width="0.21" points="309.97,-125.24 299.61,-123 306.31,-131.21 309.97,-125.24"/>
</g>
<!-- 405 -->
<g id="node23" class="node">
<title>405</title>
<ellipse fill="white" stroke="black" cx="343" cy="-109.54" rx="21.43" ry="21.43"/>
<text text-anchor="middle" x="343" y="-107.34" font-family="Times,serif" font-size="9.00">405</text>
</g>
<!-- 00&#45;&gt;405 -->
<g id="edge3" class="edge">
<title>00&#45;&gt;405</title>
<path fill="none" stroke="green" stroke-width="0.1" d="M439.77,-167.94C423.73,-159.59 396,-144.79 373,-130.75 371.53,-129.85 370.02,-128.91 368.51,-127.95"/>
<polygon fill="green" stroke="green" stroke-width="0.1" points="370.24,-124.9 359.96,-122.35 366.41,-130.76 370.24,-124.9"/>
</g>
<!-- 406 -->
<g id="node24" class="node">
<title>406</title>
<ellipse fill="white" stroke="black" cx="403" cy="-109.54" rx="21.43" ry="21.43"/>
<text text-anchor="middle" x="403" y="-107.34" font-family="Times,serif" font-size="9.00">406</text>
</g>
<!-- 00&#45;&gt;406 -->
<g id="edge4" class="edge">
<title>00&#45;&gt;406</title>
<path fill="none" stroke="green" stroke-width="0.1" d="M446.67,-166.62C440.47,-158.66 430.71,-146.13 421.99,-134.93"/>
<polygon fill="green" stroke="green" stroke-width="0.1" points="424.51,-132.47 415.61,-126.73 418.99,-136.77 424.51,-132.47"/>
</g>
<!-- 407 -->
<g id="node25" class="node">
<title>407</title>
<ellipse fill="white" stroke="black" cx="463" cy="-109.54" rx="21.43" ry="21.43"/>
<text text-anchor="middle" x="463" y="-107.34" font-family="Times,serif" font-size="9.00">407</text>
</g>
<!-- 00&#45;&gt;407 -->
<g id="edge5" class="edge">
<title>00&#45;&gt;407</title>
<path fill="none" stroke="red" stroke-width="0.11" d="M454.27,-166.62C455.29,-160.03 456.81,-150.3 458.29,-140.79"/>
<polygon fill="red" stroke="red" stroke-width="0.11" points="461.78,-141.14 459.86,-130.72 454.86,-140.06 461.78,-141.14"/>
</g>
<!-- 408 -->
<g id="node26" class="node">
<title>408</title>
<ellipse fill="white" stroke="black" cx="523" cy="-109.54" rx="21.43" ry="21.43"/>
<text text-anchor="middle" x="523" y="-107.34" font-family="Times,serif" font-size="9.00">408</text>
</g>
<!-- 00&#45;&gt;408 -->
<g id="edge6" class="edge">
<title>00&#45;&gt;408</title>
<path fill="none" stroke="green" stroke-width="0.27" d="M461.87,-166.62C471.43,-157.84 487.05,-143.52 500.11,-131.54"/>
<polygon fill="green" stroke="green" stroke-width="0.27" points="502.82,-133.8 507.83,-124.46 498.09,-128.64 502.82,-133.8"/>
</g>
<!-- 409 -->
<g id="node27" class="node">
<title>409</title>
<ellipse fill="white" stroke="black" cx="163" cy="-109.54" rx="21.43" ry="21.43"/>
<text text-anchor="middle" x="163" y="-107.34" font-family="Times,serif" font-size="9.00">409</text>
</g>
<!-- 00&#45;&gt;409 -->
<g id="edge7" class="edge">
<title>00&#45;&gt;409</title>
<path fill="none" stroke="green" stroke-width="0.11" d="M439.64,-169.41C436.82,-168.42 433.84,-167.47 431,-166.75 327.33,-140.34 292.68,-169.59 193,-130.75 191.39,-130.13 189.78,-129.4 188.19,-128.6"/>
<polygon fill="green" stroke="green" stroke-width="0.11" points="189.81,-125.49 179.4,-123.48 186.28,-131.54 189.81,-125.49"/>
</g>
<!-- 01 -->
<g id="node2" class="node">
<title>01</title>
<polygon fill="lightgray" stroke="black" points="510,-184.75 484,-184.75 484,-166.75 510,-166.75 510,-184.75"/>
<text text-anchor="middle" x="497" y="-173.55" font-family="Times,serif" font-size="9.00">01</text>
</g>
<!-- 01&#45;&gt;403 -->
<g id="edge8" class="edge">
<title>01&#45;&gt;403</title>
<path fill="none" stroke="red" stroke-width="0.27" d="M483.63,-169.44C480.81,-168.45 477.83,-167.49 475,-166.75 378.27,-141.56 345.94,-167.53 253,-130.75 251.39,-130.12 249.79,-129.38 248.2,-128.58"/>
<polygon fill="red" stroke="red" stroke-width="0.27" points="249.82,-125.48 239.42,-123.44 246.28,-131.52 249.82,-125.48"/>
</g>
<!-- 01&#45;&gt;404 -->
<g id="edge9" class="edge">
<title>01&#45;&gt;404</title>
<path fill="none" stroke="red" stroke-width="0.12" d="M483.6,-169.56C480.78,-168.56 477.81,-167.57 475,-166.75 404.19,-146.11 380.77,-159.87 313,-130.75 311.41,-130.07 309.82,-129.3 308.24,-128.47"/>
<polygon fill="red" stroke="red" stroke-width="0.12" points="309.88,-125.37 299.5,-123.25 306.29,-131.38 309.88,-125.37"/>
</g>
<!-- 01&#45;&gt;405 -->
<g id="edge10" class="edge">
<title>01&#45;&gt;405</title>
<path fill="none" stroke="red" stroke-width="0.14" d="M483.98,-169.99C481.03,-168.92 477.91,-167.79 475,-166.75 429.74,-150.54 415.95,-152.36 373,-130.75 371.46,-129.98 369.9,-129.13 368.35,-128.25"/>
<polygon fill="red" stroke="red" stroke-width="0.14" points="370.02,-125.17 359.68,-122.86 366.33,-131.11 370.02,-125.17"/>
</g>
<!-- 01&#45;&gt;406 -->
<g id="edge11" class="edge">
<title>01&#45;&gt;406</title>
<path fill="none" stroke="red" stroke-width="0.49" d="M485.09,-166.62C471,-156.99 447.12,-140.68 428.74,-128.12"/>
<polygon fill="red" stroke="red" stroke-width="0.49" points="430.46,-125.06 420.22,-122.31 426.51,-130.84 430.46,-125.06"/>
</g>
<!-- 01&#45;&gt;407 -->
<g id="edge12" class="edge">
<title>01&#45;&gt;407</title>
<path fill="none" stroke="green" stroke-width="0.16" d="M492.69,-166.62C488.8,-159.26 482.83,-147.99 477.27,-137.48"/>
<polygon fill="green" stroke="green" stroke-width="0.16" points="480.31,-135.76 472.54,-128.56 474.13,-139.04 480.31,-135.76"/>
</g>
<!-- 01&#45;&gt;408 -->
<g id="edge13" class="edge">
<title>01&#45;&gt;408</title>
<path fill="none" stroke="red" stroke-width="0.27" d="M500.29,-166.62C503.15,-159.56 507.46,-148.91 511.56,-138.78"/>
<polygon fill="red" stroke="red" stroke-width="0.27" points="514.87,-139.95 515.38,-129.36 508.38,-137.32 514.87,-139.95"/>
</g>
<!-- 01&#45;&gt;409 -->
<g id="edge14" class="edge">
<title>01&#45;&gt;409</title>
<path fill="none" stroke="red" stroke-width="0.13" d="M483.65,-169.36C480.83,-168.38 477.84,-167.44 475,-166.75 352.21,-136.98 311.25,-175.26 193,-130.75 191.38,-130.14 189.77,-129.43 188.17,-128.65"/>
<polygon fill="red" stroke="red" stroke-width="0.13" points="189.78,-125.54 179.37,-123.55 186.27,-131.59 189.78,-125.54"/>
</g>
<!-- 02 -->
<g id="node3" class="node">
<title>02</title>
<polygon fill="lightgray" stroke="black" points="554,-184.75 528,-184.75 528,-166.75 554,-166.75 554,-184.75"/>
<text text-anchor="middle" x="541" y="-173.55" font-family="Times,serif" font-size="9.00">02</text>
</g>
<!-- 02&#45;&gt;403 -->
<g id="edge15" class="edge">
<title>02&#45;&gt;403</title>
<path fill="none" stroke="green" stroke-width="0.31" d="M527.65,-169.38C524.82,-168.39 521.84,-167.45 519,-166.75 403.17,-138.2 364.5,-173.19 253,-130.75 251.39,-130.14 249.77,-129.42 248.18,-128.63"/>
<polygon fill="green" stroke="green" stroke-width="0.31" points="249.79,-125.52 239.38,-123.53 246.28,-131.58 249.79,-125.52"/>
</g>
<!-- 02&#45;&gt;404 -->
<g id="edge16" class="edge">
<title>02&#45;&gt;404</title>
<path fill="none" stroke="green" stroke-width="0.12" d="M527.62,-169.46C524.8,-168.47 521.83,-167.51 519,-166.75 429.2,-142.78 399.21,-165.48 313,-130.75 311.4,-130.11 309.79,-129.37 308.21,-128.56"/>
<polygon fill="green" stroke="green" stroke-width="0.12" points="309.83,-125.45 299.43,-123.4 306.28,-131.49 309.83,-125.45"/>
</g>
<!-- 02&#45;&gt;405 -->
<g id="edge17" class="edge">
<title>02&#45;&gt;405</title>
<path fill="none" stroke="red" stroke-width="0.42" d="M527.58,-169.61C524.76,-168.61 521.8,-167.6 519,-166.75 455.06,-147.3 434.1,-157.84 373,-130.75 371.42,-130.05 369.84,-129.27 368.26,-128.43"/>
<polygon fill="red" stroke="red" stroke-width="0.42" points="369.9,-125.33 359.53,-123.18 366.29,-131.33 369.9,-125.33"/>
</g>
<!-- 02&#45;&gt;406 -->
<g id="edge18" class="edge">
<title>02&#45;&gt;406</title>
<path fill="none" stroke="red" stroke-width="0.31" d="M527.73,-169.74C502.87,-160.29 450.24,-139.95 433,-130.75 431.48,-129.94 429.93,-129.07 428.39,-128.16"/>
<polygon fill="red" stroke="red" stroke-width="0.31" points="430.08,-125.09 419.76,-122.71 426.35,-131.01 430.08,-125.09"/>
</g>
<!-- 02&#45;&gt;407 -->
<g id="edge19" class="edge">
<title>02&#45;&gt;407</title>
<path fill="none" stroke="green" stroke-width="0.32" d="M531.12,-166.62C520.05,-157.51 501.71,-142.41 486.85,-130.17"/>
<polygon fill="green" stroke="green" stroke-width="0.32" points="488.96,-127.38 479.02,-123.73 484.52,-132.79 488.96,-127.38"/>
</g>
<!-- 02&#45;&gt;408 -->
<g id="edge20" class="edge">
<title>02&#45;&gt;408</title>
<path fill="none" stroke="green" stroke-width="0.36" d="M538.72,-166.62C536.82,-159.86 534,-149.8 531.27,-140.06"/>
<polygon fill="green" stroke="green" stroke-width="0.36" points="534.57,-138.86 528.5,-130.17 527.83,-140.75 534.57,-138.86"/>
</g>
<!-- 02&#45;&gt;409 -->
<g id="edge21" class="edge">
<title>02&#45;&gt;409</title>
<path fill="none" stroke="red" stroke-width="0.25" d="M527.66,-169.33C524.84,-168.34 521.85,-167.42 519,-166.75 377.05,-133.61 329.86,-180.93 193,-130.75 191.38,-130.16 189.76,-129.46 188.16,-128.68"/>
<polygon fill="red" stroke="red" stroke-width="0.25" points="189.77,-125.57 179.35,-123.61 186.27,-131.63 189.77,-125.57"/>
</g>
<!-- 03 -->
<g id="node4" class="node">
<title>03</title>
<polygon fill="lightgray" stroke="black" points="598,-184.75 572,-184.75 572,-166.75 598,-166.75 598,-184.75"/>
<text text-anchor="middle" x="585" y="-173.55" font-family="Times,serif" font-size="9.00">03</text>
</g>
<!-- 03&#45;&gt;403 -->
<g id="edge22" class="edge">
<title>03&#45;&gt;403</title>
<path fill="none" stroke="green" stroke-width="0.13" d="M571.66,-169.34C568.83,-168.35 565.85,-167.43 563,-166.75 428.02,-134.84 383.09,-178.87 253,-130.75 251.38,-130.15 249.76,-129.45 248.16,-128.67"/>
<polygon fill="green" stroke="green" stroke-width="0.13" points="249.77,-125.56 239.36,-123.59 246.27,-131.62 249.77,-125.56"/>
</g>
<!-- 03&#45;&gt;404 -->
<g id="edge23" class="edge">
<title>03&#45;&gt;404</title>
<path fill="none" stroke="green" stroke-width="0.2" d="M571.64,-169.4C568.82,-168.41 565.84,-167.46 563,-166.75 454.12,-139.43 417.74,-171.13 313,-130.75 311.39,-130.13 309.78,-129.41 308.18,-128.62"/>
<polygon fill="green" stroke="green" stroke-width="0.2" points="309.8,-125.51 299.39,-123.5 306.28,-131.56 309.8,-125.51"/>
</g>
<!-- 03&#45;&gt;405 -->
<g id="edge24" class="edge">
<title>03&#45;&gt;405</title>
<path fill="none" stroke="green" stroke-width="0.16" d="M571.61,-169.5C568.8,-168.5 565.82,-167.53 563,-166.75 480.12,-143.99 452.49,-163.43 373,-130.75 371.4,-130.1 369.8,-129.35 368.22,-128.53"/>
<polygon fill="green" stroke="green" stroke-width="0.16" points="369.84,-125.43 359.45,-123.36 366.28,-131.45 369.84,-125.43"/>
</g>
<!-- 03&#45;&gt;406 -->
<g id="edge25" class="edge">
<title>03&#45;&gt;406</title>
<path fill="none" stroke="red" stroke-width="0.15" d="M571.56,-169.68C568.75,-168.67 565.79,-167.64 563,-166.75 505.9,-148.49 487.46,-155.83 433,-130.75 431.43,-130.03 429.85,-129.23 428.29,-128.38"/>
<polygon fill="red" stroke="red" stroke-width="0.15" points="429.94,-125.28 419.57,-123.08 426.3,-131.27 429.94,-125.28"/>
</g>
<!-- 03&#45;&gt;407 -->
<g id="edge26" class="edge">
<title>03&#45;&gt;407</title>
<path fill="none" stroke="green" stroke-width="0.21" d="M571.9,-169.21C553.77,-161.39 520.2,-146.31 493,-130.75 491.5,-129.89 489.98,-128.99 488.45,-128.05"/>
<polygon fill="green" stroke="green" stroke-width="0.21" points="490.16,-124.99 479.86,-122.53 486.38,-130.88 490.16,-124.99"/>
</g>
<!-- 03&#45;&gt;408 -->
<g id="edge27" class="edge">
<title>03&#45;&gt;408</title>
<path fill="none" stroke="green" stroke-width="0.11" d="M577.15,-166.62C569.02,-158.2 555.97,-144.68 544.71,-133.02"/>
<polygon fill="green" stroke="green" stroke-width="0.11" points="547.11,-130.47 537.64,-125.71 542.07,-135.33 547.11,-130.47"/>
</g>
<!-- 03&#45;&gt;409 -->
<g id="edge28" class="edge">
<title>03&#45;&gt;409</title>
<path fill="none" stroke="green" stroke-width="0.34" d="M571.66,-169.3C568.84,-168.31 565.85,-167.4 563,-166.75 401.87,-130.23 348.49,-186.62 193,-130.75 191.33,-130.15 189.67,-129.44 188.03,-128.65"/>
<polygon fill="green" stroke="green" stroke-width="0.34" points="189.43,-125.42 179.02,-123.45 185.93,-131.48 189.43,-125.42"/>
</g>
<!-- 10 -->
<g id="node5" class="node">
<title>10</title>
<polygon fill="lightgray" stroke="black" points="642,-184.75 616,-184.75 616,-166.75 642,-166.75 642,-184.75"/>
<text text-anchor="middle" x="629" y="-173.55" font-family="Times,serif" font-size="9.00">10</text>
</g>
<!-- 10&#45;&gt;403 -->
<g id="edge29" class="edge">
<title>10&#45;&gt;403</title>
<path fill="none" stroke="red" stroke-width="0.27" d="M615.66,-169.31C612.84,-168.32 609.85,-167.41 607,-166.75 452.84,-131.46 401.71,-184.55 253,-130.75 251.38,-130.16 249.75,-129.47 248.15,-128.7"/>
<polygon fill="red" stroke="red" stroke-width="0.27" points="249.76,-125.58 239.34,-123.64 246.27,-131.65 249.76,-125.58"/>
</g>
<!-- 10&#45;&gt;404 -->
<g id="edge30" class="edge">
<title>10&#45;&gt;404</title>
<path fill="none" stroke="red" stroke-width="0.16" d="M615.65,-169.35C612.83,-168.37 609.85,-167.43 607,-166.75 478.99,-136.06 436.33,-176.8 313,-130.75 311.38,-130.15 309.77,-129.44 308.17,-128.66"/>
<polygon fill="red" stroke="red" stroke-width="0.16" points="309.78,-125.55 299.37,-123.57 306.27,-131.61 309.78,-125.55"/>
</g>
<!-- 10&#45;&gt;405 -->
<g id="edge31" class="edge">
<title>10&#45;&gt;405</title>
<path fill="none" stroke="red" stroke-width="0.15" d="M615.64,-169.42C612.82,-168.43 609.83,-167.48 607,-166.75 505.07,-140.65 471,-169.08 373,-130.75 371.39,-130.12 369.78,-129.4 368.19,-128.6"/>
<polygon fill="red" stroke="red" stroke-width="0.15" points="369.81,-125.49 359.41,-123.47 366.28,-131.53 369.81,-125.49"/>
</g>
<!-- 10&#45;&gt;406 -->
<g id="edge32" class="edge">
<title>10&#45;&gt;406</title>
<path fill="none" stroke="green" stroke-width="0.26" d="M615.6,-169.53C612.79,-168.53 609.82,-167.55 607,-166.75 531.03,-145.2 505.78,-161.39 433,-130.75 431.41,-130.08 429.81,-129.32 428.23,-128.5"/>
<polygon fill="green" stroke="green" stroke-width="0.26" points="429.86,-125.4 419.48,-123.3 426.29,-131.42 429.86,-125.4"/>
</g>
<!-- 10&#45;&gt;407 -->
<g id="edge33" class="edge">
<title>10&#45;&gt;407</title>
<path fill="none" stroke="red" stroke-width="0.22" d="M615.54,-169.75C612.72,-168.74 609.77,-167.69 607,-166.75 556.69,-149.67 540.86,-153.83 493,-130.75 491.44,-130 489.88,-129.18 488.32,-128.31"/>
<polygon fill="red" stroke="red" stroke-width="0.22" points="489.98,-125.22 479.63,-122.97 486.31,-131.19 489.98,-125.22"/>
</g>
<!-- 10&#45;&gt;408 -->
<g id="edge34" class="edge">
<title>10&#45;&gt;408</title>
<path fill="none" stroke="red" stroke-width="0.28" d="M615.58,-166.62C599.08,-156.62 570.69,-139.43 549.69,-126.71"/>
<polygon fill="red" stroke="red" stroke-width="0.28" points="551.28,-123.58 540.91,-121.39 547.65,-129.56 551.28,-123.58"/>
</g>
<!-- 10&#45;&gt;409 -->
<g id="edge35" class="edge">
<title>10&#45;&gt;409</title>
<path fill="none" stroke="green" stroke-width="0.12" d="M615.67,-169.27C612.85,-168.29 609.86,-167.38 607,-166.75 426.67,-126.85 367.13,-192.31 193,-130.75 191.33,-130.16 189.67,-129.46 188.02,-128.67"/>
<polygon fill="green" stroke="green" stroke-width="0.12" points="189.42,-125.44 179.01,-123.48 185.93,-131.5 189.42,-125.44"/>
</g>
<!-- 11 -->
<g id="node6" class="node">
<title>11</title>
<polygon fill="lightgray" stroke="black" points="686,-184.75 660,-184.75 660,-166.75 686,-166.75 686,-184.75"/>
<text text-anchor="middle" x="673" y="-173.55" font-family="Times,serif" font-size="9.00">11</text>
</g>
<!-- 11&#45;&gt;403 -->
<g id="edge36" class="edge">
<title>11&#45;&gt;403</title>
<path fill="none" stroke="green" stroke-width="0.16" d="M659.67,-169.28C656.85,-168.3 653.86,-167.39 651,-166.75 477.65,-128.08 420.35,-190.24 253,-130.75 251.33,-130.16 249.67,-129.45 248.03,-128.66"/>
<polygon fill="green" stroke="green" stroke-width="0.16" points="249.42,-125.43 239.01,-123.47 245.93,-131.49 249.42,-125.43"/>
</g>
<!-- 11&#45;&gt;404 -->
<g id="edge37" class="edge">
<title>11&#45;&gt;404</title>
<path fill="none" stroke="green" stroke-width="0.24" d="M659.66,-169.32C656.84,-168.33 653.85,-167.41 651,-166.75 503.82,-132.69 454.94,-182.48 313,-130.75 311.38,-130.16 309.76,-129.46 308.16,-128.69"/>
<polygon fill="green" stroke="green" stroke-width="0.24" points="309.76,-125.57 299.35,-123.62 306.27,-131.64 309.76,-125.57"/>
</g>
<!-- 11&#45;&gt;405 -->
<g id="edge38" class="edge">
<title>11&#45;&gt;405</title>
<path fill="none" stroke="red" stroke-width="0.37" d="M659.65,-169.37C656.83,-168.38 653.84,-167.44 651,-166.75 529.95,-137.29 489.56,-174.74 373,-130.75 371.38,-130.14 369.77,-129.43 368.17,-128.65"/>
<polygon fill="red" stroke="red" stroke-width="0.37" points="369.78,-125.53 359.38,-123.55 366.28,-131.59 369.78,-125.53"/>
</g>
<!-- 11&#45;&gt;406 -->
<g id="edge39" class="edge">
<title>11&#45;&gt;406</title>
<path fill="none" stroke="red" stroke-width="0.11" d="M659.63,-169.44C656.81,-168.45 653.83,-167.49 651,-166.75 556,-141.87 524.26,-167.02 433,-130.75 431.4,-130.11 429.79,-129.38 428.2,-128.58"/>
<polygon fill="red" stroke="red" stroke-width="0.11" points="429.82,-125.47 419.42,-123.43 426.28,-131.51 429.82,-125.47"/>
</g>
<!-- 11&#45;&gt;407 -->
<g id="edge40" class="edge">
<title>11&#45;&gt;407</title>
<path fill="none" stroke="red" stroke-width="0.51" d="M659.59,-169.58C656.78,-168.57 653.81,-167.58 651,-166.75 581.91,-146.41 559.1,-159.36 493,-130.75 491.42,-130.07 489.82,-129.29 488.25,-128.46"/>
<polygon fill="red" stroke="red" stroke-width="0.51" points="489.88,-125.36 479.5,-123.23 486.29,-131.37 489.88,-125.36"/>
</g>
<!-- 11&#45;&gt;408 -->
<g id="edge41" class="edge">
<title>11&#45;&gt;408</title>
<path fill="none" stroke="red" stroke-width="0.28" d="M659.95,-169.17C635.92,-158.88 584.16,-136.72 551.61,-122.79"/>
<polygon fill="red" stroke="red" stroke-width="0.28" points="552.74,-119.46 542.17,-118.75 549.99,-125.9 552.74,-119.46"/>
</g>
<!-- 11&#45;&gt;409 -->
<g id="edge42" class="edge">
<title>11&#45;&gt;409</title>
<path fill="none" stroke="green" stroke-width="0.11" d="M659.67,-169.26C656.85,-168.28 653.86,-167.37 651,-166.75 451.46,-123.47 385.79,-198.01 193,-130.75 191.33,-130.17 189.66,-129.47 188.02,-128.69"/>
<polygon fill="green" stroke="green" stroke-width="0.11" points="189.41,-125.45 179,-123.51 185.93,-131.52 189.41,-125.45"/>
</g>
<!-- 12 -->
<g id="node7" class="node">
<title>12</title>
<polygon fill="lightgray" stroke="black" points="26,-184.75 0,-184.75 0,-166.75 26,-166.75 26,-184.75"/>
<text text-anchor="middle" x="13" y="-173.55" font-family="Times,serif" font-size="9.00">12</text>
</g>
<!-- 12&#45;&gt;403 -->
<g id="edge43" class="edge">
<title>12&#45;&gt;403</title>
<path fill="none" stroke="red" stroke-width="0.1" d="M26.41,-169.58C29.22,-168.57 32.19,-167.58 35,-166.75 104.09,-146.41 126.9,-159.36 193,-130.75 194.58,-130.07 196.18,-129.29 197.75,-128.46"/>
<polygon fill="red" stroke="red" stroke-width="0.1" points="199.71,-131.37 206.5,-123.23 196.12,-125.36 199.71,-131.37"/>
</g>
<!-- 12&#45;&gt;404 -->
<g id="edge44" class="edge">
<title>12&#45;&gt;404</title>
<path fill="none" stroke="red" stroke-width="0.19" d="M26.37,-169.44C29.19,-168.45 32.17,-167.49 35,-166.75 130,-141.87 161.74,-167.02 253,-130.75 254.6,-130.11 256.21,-129.38 257.8,-128.58"/>
<polygon fill="red" stroke="red" stroke-width="0.19" points="259.72,-131.51 266.58,-123.43 256.18,-125.47 259.72,-131.51"/>
</g>
<!-- 12&#45;&gt;405 -->
<g id="edge45" class="edge">
<title>12&#45;&gt;405</title>
<path fill="none" stroke="red" stroke-width="0.35" d="M26.35,-169.37C29.17,-168.38 32.16,-167.44 35,-166.75 156.05,-137.29 196.44,-174.74 313,-130.75 314.62,-130.14 316.23,-129.43 317.83,-128.65"/>
<polygon fill="red" stroke="red" stroke-width="0.35" points="319.72,-131.59 326.62,-123.55 316.22,-125.53 319.72,-131.59"/>
</g>
<!-- 12&#45;&gt;406 -->
<g id="edge46" class="edge">
<title>12&#45;&gt;406</title>
<path fill="none" stroke="red" stroke-width="0.15" d="M26.34,-169.32C29.16,-168.33 32.15,-167.41 35,-166.75 182.18,-132.69 231.06,-182.48 373,-130.75 374.62,-130.16 376.24,-129.46 377.84,-128.69"/>
<polygon fill="red" stroke="red" stroke-width="0.15" points="379.73,-131.64 386.65,-123.62 376.24,-125.57 379.73,-131.64"/>
</g>
<!-- 12&#45;&gt;407 -->
<g id="edge47" class="edge">
<title>12&#45;&gt;407</title>
<path fill="none" stroke="green" stroke-width="0.16" d="M26.33,-169.28C29.15,-168.3 32.14,-167.39 35,-166.75 208.35,-128.08 265.65,-190.24 433,-130.75 434.67,-130.16 436.33,-129.45 437.97,-128.66"/>
<polygon fill="green" stroke="green" stroke-width="0.16" points="440.07,-131.49 446.99,-123.47 436.58,-125.43 440.07,-131.49"/>
</g>
<!-- 12&#45;&gt;408 -->
<g id="edge48" class="edge">
<title>12&#45;&gt;408</title>
<path fill="none" stroke="red" stroke-width="0.31" d="M26.33,-169.26C29.15,-168.28 32.14,-167.37 35,-166.75 234.54,-123.47 300.21,-198.01 493,-130.75 494.67,-130.17 496.34,-129.47 497.98,-128.69"/>
<polygon fill="red" stroke="red" stroke-width="0.31" points="500.07,-131.52 507,-123.51 496.59,-125.45 500.07,-131.52"/>
</g>
<!-- 12&#45;&gt;409 -->
<g id="edge49" class="edge">
<title>12&#45;&gt;409</title>
<path fill="none" stroke="red" stroke-width="0.42" d="M26.05,-169.17C50.08,-158.88 101.84,-136.72 134.39,-122.79"/>
<polygon fill="red" stroke="red" stroke-width="0.42" points="136.01,-125.9 143.83,-118.75 133.26,-119.46 136.01,-125.9"/>
</g>
<!-- 13 -->
<g id="node8" class="node">
<title>13</title>
<polygon fill="lightgray" stroke="black" points="70,-184.75 44,-184.75 44,-166.75 70,-166.75 70,-184.75"/>
<text text-anchor="middle" x="57" y="-173.55" font-family="Times,serif" font-size="9.00">13</text>
</g>
<!-- 13&#45;&gt;403 -->
<g id="edge50" class="edge">
<title>13&#45;&gt;403</title>
<path fill="none" stroke="red" stroke-width="0.41" d="M70.46,-169.75C73.28,-168.74 76.23,-167.69 79,-166.75 129.31,-149.67 145.14,-153.83 193,-130.75 194.56,-130 196.12,-129.18 197.68,-128.31"/>
<polygon fill="red" stroke="red" stroke-width="0.41" points="199.69,-131.19 206.37,-122.97 196.02,-125.22 199.69,-131.19"/>
</g>
<!-- 13&#45;&gt;404 -->
<g id="edge51" class="edge">
<title>13&#45;&gt;404</title>
<path fill="none" stroke="red" stroke-width="0.18" d="M70.4,-169.53C73.21,-168.53 76.18,-167.55 79,-166.75 154.97,-145.2 180.22,-161.39 253,-130.75 254.59,-130.08 256.19,-129.32 257.77,-128.5"/>
<polygon fill="red" stroke="red" stroke-width="0.18" points="259.71,-131.42 266.52,-123.3 256.14,-125.4 259.71,-131.42"/>
</g>
<!-- 13&#45;&gt;405 -->
<g id="edge52" class="edge">
<title>13&#45;&gt;405</title>
<path fill="none" stroke="red" stroke-width="0.38" d="M70.36,-169.42C73.18,-168.43 76.17,-167.48 79,-166.75 180.93,-140.65 215,-169.08 313,-130.75 314.61,-130.12 316.22,-129.4 317.81,-128.6"/>
<polygon fill="red" stroke="red" stroke-width="0.38" points="319.72,-131.53 326.59,-123.47 316.19,-125.49 319.72,-131.53"/>
</g>
<!-- 13&#45;&gt;406 -->
<g id="edge53" class="edge">
<title>13&#45;&gt;406</title>
<path fill="none" stroke="green" stroke-width="0.28" d="M70.35,-169.35C73.17,-168.37 76.15,-167.43 79,-166.75 207.01,-136.06 249.67,-176.8 373,-130.75 374.62,-130.15 376.23,-129.44 377.83,-128.66"/>
<polygon fill="green" stroke="green" stroke-width="0.28" points="379.73,-131.61 386.63,-123.57 376.22,-125.55 379.73,-131.61"/>
</g>
<!-- 13&#45;&gt;407 -->
<g id="edge54" class="edge">
<title>13&#45;&gt;407</title>
<path fill="none" stroke="red" stroke-width="0.21" d="M70.34,-169.31C73.16,-168.32 76.15,-167.41 79,-166.75 233.16,-131.46 284.29,-184.55 433,-130.75 434.62,-130.16 436.25,-129.47 437.85,-128.7"/>
<polygon fill="red" stroke="red" stroke-width="0.21" points="439.73,-131.65 446.66,-123.64 436.24,-125.58 439.73,-131.65"/>
</g>
<!-- 13&#45;&gt;408 -->
<g id="edge55" class="edge">
<title>13&#45;&gt;408</title>
<path fill="none" stroke="green" stroke-width="0.14" d="M70.33,-169.27C73.15,-168.29 76.14,-167.38 79,-166.75 259.33,-126.85 318.87,-192.31 493,-130.75 494.67,-130.16 496.33,-129.46 497.98,-128.67"/>
<polygon fill="green" stroke="green" stroke-width="0.14" points="500.07,-131.5 506.99,-123.48 496.58,-125.44 500.07,-131.5"/>
</g>
<!-- 13&#45;&gt;409 -->
<g id="edge56" class="edge">
<title>13&#45;&gt;409</title>
<path fill="none" stroke="red" stroke-width="0.17" d="M70.42,-166.62C86.92,-156.62 115.31,-139.43 136.31,-126.71"/>
<polygon fill="red" stroke="red" stroke-width="0.17" points="138.35,-129.56 145.09,-121.39 134.72,-123.58 138.35,-129.56"/>
</g>
<!-- 20 -->
<g id="node9" class="node">
<title>20</title>
<polygon fill="lightgray" stroke="black" points="114,-184.75 88,-184.75 88,-166.75 114,-166.75 114,-184.75"/>
<text text-anchor="middle" x="101" y="-173.55" font-family="Times,serif" font-size="9.00">20</text>
</g>
<!-- 20&#45;&gt;403 -->
<g id="edge57" class="edge">
<title>20&#45;&gt;403</title>
<path fill="none" stroke="green" stroke-width="0.21" d="M114.1,-169.21C132.23,-161.39 165.8,-146.31 193,-130.75 194.5,-129.89 196.02,-128.99 197.55,-128.05"/>
<polygon fill="green" stroke="green" stroke-width="0.21" points="199.62,-130.88 206.14,-122.53 195.84,-124.99 199.62,-130.88"/>
</g>
<!-- 20&#45;&gt;404 -->
<g id="edge58" class="edge">
<title>20&#45;&gt;404</title>
<path fill="none" stroke="green" stroke-width="0.1" d="M114.44,-169.68C117.25,-168.67 120.21,-167.64 123,-166.75 180.1,-148.49 198.54,-155.83 253,-130.75 254.57,-130.03 256.15,-129.23 257.71,-128.38"/>
<polygon fill="green" stroke="green" stroke-width="0.1" points="259.7,-131.27 266.43,-123.08 256.06,-125.28 259.7,-131.27"/>
</g>
<!-- 20&#45;&gt;405 -->
<g id="edge59" class="edge">
<title>20&#45;&gt;405</title>
<path fill="none" stroke="green" stroke-width="0.22" d="M114.39,-169.5C117.2,-168.5 120.18,-167.53 123,-166.75 205.88,-143.99 233.51,-163.43 313,-130.75 314.6,-130.1 316.2,-129.35 317.78,-128.53"/>
<polygon fill="green" stroke="green" stroke-width="0.22" points="319.72,-131.45 326.55,-123.36 316.16,-125.43 319.72,-131.45"/>
</g>
<!-- 20&#45;&gt;406 -->
<g id="edge60" class="edge">
<title>20&#45;&gt;406</title>
<path fill="none" stroke="red" stroke-width="0.36" d="M114.36,-169.4C117.18,-168.41 120.16,-167.46 123,-166.75 231.88,-139.43 268.26,-171.13 373,-130.75 374.61,-130.13 376.22,-129.41 377.82,-128.62"/>
<polygon fill="red" stroke="red" stroke-width="0.36" points="379.72,-131.56 386.61,-123.5 376.2,-125.51 379.72,-131.56"/>
</g>
<!-- 20&#45;&gt;407 -->
<g id="edge61" class="edge">
<title>20&#45;&gt;407</title>
<path fill="none" stroke="red" stroke-width="0.21" d="M114.34,-169.34C117.17,-168.35 120.15,-167.43 123,-166.75 257.98,-134.84 302.91,-178.87 433,-130.75 434.62,-130.15 436.24,-129.45 437.84,-128.67"/>
<polygon fill="red" stroke="red" stroke-width="0.21" points="439.73,-131.62 446.64,-123.59 436.23,-125.56 439.73,-131.62"/>
</g>
<!-- 20&#45;&gt;408 -->
<g id="edge62" class="edge">
<title>20&#45;&gt;408</title>
<path fill="none" stroke="green" stroke-width="0.11" d="M114.34,-169.3C117.16,-168.31 120.15,-167.4 123,-166.75 284.13,-130.23 337.51,-186.62 493,-130.75 494.67,-130.15 496.33,-129.44 497.97,-128.65"/>
<polygon fill="green" stroke="green" stroke-width="0.11" points="500.07,-131.48 506.98,-123.45 496.57,-125.42 500.07,-131.48"/>
</g>
<!-- 20&#45;&gt;409 -->
<g id="edge63" class="edge">
<title>20&#45;&gt;409</title>
<path fill="none" stroke="green" stroke-width="0.16" d="M108.85,-166.62C116.98,-158.2 130.03,-144.68 141.29,-133.02"/>
<polygon fill="green" stroke="green" stroke-width="0.16" points="143.93,-135.33 148.36,-125.71 138.89,-130.47 143.93,-135.33"/>
</g>
<!-- 21 -->
<g id="node10" class="node">
<title>21</title>
<polygon fill="lightgray" stroke="black" points="158,-184.75 132,-184.75 132,-166.75 158,-166.75 158,-184.75"/>
<text text-anchor="middle" x="145" y="-173.55" font-family="Times,serif" font-size="9.00">21</text>
</g>
<!-- 21&#45;&gt;403 -->
<g id="edge64" class="edge">
<title>21&#45;&gt;403</title>
<path fill="none" stroke="red" stroke-width="0.12" d="M154.88,-166.62C165.95,-157.51 184.29,-142.41 199.15,-130.17"/>
<polygon fill="red" stroke="red" stroke-width="0.12" points="201.48,-132.79 206.98,-123.73 197.04,-127.38 201.48,-132.79"/>
</g>
<!-- 21&#45;&gt;404 -->
<g id="edge65" class="edge">
<title>21&#45;&gt;404</title>
<path fill="none" stroke="green" stroke-width="0.18" d="M158.27,-169.74C183.13,-160.29 235.76,-139.95 253,-130.75 254.52,-129.94 256.07,-129.07 257.61,-128.16"/>
<polygon fill="green" stroke="green" stroke-width="0.18" points="259.65,-131.01 266.24,-122.71 255.92,-125.09 259.65,-131.01"/>
</g>
<!-- 21&#45;&gt;405 -->
<g id="edge66" class="edge">
<title>21&#45;&gt;405</title>
<path fill="none" stroke="red" stroke-width="0.4" d="M158.42,-169.61C161.24,-168.61 164.2,-167.6 167,-166.75 230.94,-147.3 251.9,-157.84 313,-130.75 314.58,-130.05 316.16,-129.27 317.74,-128.43"/>
<polygon fill="red" stroke="red" stroke-width="0.4" points="319.71,-131.33 326.47,-123.18 316.1,-125.33 319.71,-131.33"/>
</g>
<!-- 21&#45;&gt;406 -->
<g id="edge67" class="edge">
<title>21&#45;&gt;406</title>
<path fill="none" stroke="red" stroke-width="0.38" d="M158.38,-169.46C161.2,-168.47 164.17,-167.51 167,-166.75 256.8,-142.78 286.79,-165.48 373,-130.75 374.6,-130.11 376.21,-129.37 377.79,-128.56"/>
<polygon fill="red" stroke="red" stroke-width="0.38" points="379.72,-131.49 386.57,-123.4 376.17,-125.45 379.72,-131.49"/>
</g>
<!-- 21&#45;&gt;407 -->
<g id="edge68" class="edge">
<title>21&#45;&gt;407</title>
<path fill="none" stroke="green" stroke-width="0.22" d="M158.35,-169.38C161.18,-168.39 164.16,-167.45 167,-166.75 282.83,-138.2 321.5,-173.19 433,-130.75 434.61,-130.14 436.23,-129.42 437.82,-128.63"/>
<polygon fill="green" stroke="green" stroke-width="0.22" points="439.72,-131.58 446.62,-123.53 436.21,-125.52 439.72,-131.58"/>
</g>
<!-- 21&#45;&gt;408 -->
<g id="edge69" class="edge">
<title>21&#45;&gt;408</title>
<path fill="none" stroke="green" stroke-width="0.26" d="M158.34,-169.33C161.16,-168.34 164.15,-167.42 167,-166.75 308.95,-133.61 356.14,-180.93 493,-130.75 494.62,-130.16 496.24,-129.46 497.84,-128.68"/>
<polygon fill="green" stroke="green" stroke-width="0.26" points="499.73,-131.63 506.65,-123.61 496.23,-125.57 499.73,-131.63"/>
</g>
<!-- 21&#45;&gt;409 -->
<g id="edge70" class="edge">
<title>21&#45;&gt;409</title>
<path fill="none" stroke="green" stroke-width="0.17" d="M147.28,-166.62C149.18,-159.86 152,-149.8 154.73,-140.06"/>
<polygon fill="green" stroke="green" stroke-width="0.17" points="158.17,-140.75 157.5,-130.17 151.43,-138.86 158.17,-140.75"/>
</g>
<!-- 22 -->
<g id="node11" class="node">
<title>22</title>
<polygon fill="lightgray" stroke="black" points="202,-184.75 176,-184.75 176,-166.75 202,-166.75 202,-184.75"/>
<text text-anchor="middle" x="189" y="-173.55" font-family="Times,serif" font-size="9.00">22</text>
</g>
<!-- 22&#45;&gt;403 -->
<g id="edge71" class="edge">
<title>22&#45;&gt;403</title>
<path fill="none" stroke="green" stroke-width="0.22" d="M193.31,-166.62C197.2,-159.26 203.17,-147.99 208.73,-137.48"/>
<polygon fill="green" stroke="green" stroke-width="0.22" points="211.87,-139.04 213.46,-128.56 205.69,-135.76 211.87,-139.04"/>
</g>
<!-- 22&#45;&gt;404 -->
<g id="edge72" class="edge">
<title>22&#45;&gt;404</title>
<path fill="none" stroke="red" stroke-width="0.36" d="M200.91,-166.62C215,-156.99 238.88,-140.68 257.26,-128.12"/>
<polygon fill="red" stroke="red" stroke-width="0.36" points="259.49,-130.84 265.78,-122.31 255.54,-125.06 259.49,-130.84"/>
</g>
<!-- 22&#45;&gt;405 -->
<g id="edge73" class="edge">
<title>22&#45;&gt;405</title>
<path fill="none" stroke="green" stroke-width="0.39" d="M202.02,-169.99C204.97,-168.92 208.09,-167.79 211,-166.75 256.26,-150.54 270.05,-152.36 313,-130.75 314.54,-129.98 316.1,-129.13 317.65,-128.25"/>
<polygon fill="green" stroke="green" stroke-width="0.39" points="319.67,-131.11 326.32,-122.86 315.98,-125.17 319.67,-131.11"/>
</g>
<!-- 22&#45;&gt;406 -->
<g id="edge74" class="edge">
<title>22&#45;&gt;406</title>
<path fill="none" stroke="red" stroke-width="0.11" d="M202.4,-169.56C205.22,-168.56 208.19,-167.57 211,-166.75 281.81,-146.11 305.23,-159.87 373,-130.75 374.59,-130.07 376.18,-129.3 377.76,-128.47"/>
<polygon fill="red" stroke="red" stroke-width="0.11" points="379.71,-131.38 386.5,-123.25 376.12,-125.37 379.71,-131.38"/>
</g>
<!-- 22&#45;&gt;407 -->
<g id="edge75" class="edge">
<title>22&#45;&gt;407</title>
<path fill="none" stroke="green" stroke-width="0.69" d="M202.37,-169.44C205.19,-168.45 208.17,-167.49 211,-166.75 307.73,-141.56 340.06,-167.53 433,-130.75 434.61,-130.12 436.21,-129.38 437.8,-128.58"/>
<polygon fill="green" stroke="green" stroke-width="0.69" points="439.72,-131.52 446.58,-123.44 436.18,-125.48 439.72,-131.52"/>
</g>
<!-- 22&#45;&gt;408 -->
<g id="edge76" class="edge">
<title>22&#45;&gt;408</title>
<path fill="none" stroke="red" stroke-width="0.58" d="M202.35,-169.36C205.17,-168.38 208.16,-167.44 211,-166.75 333.79,-136.98 374.75,-175.26 493,-130.75 494.62,-130.14 496.23,-129.43 497.83,-128.65"/>
<polygon fill="red" stroke="red" stroke-width="0.58" points="499.73,-131.59 506.63,-123.55 496.22,-125.54 499.73,-131.59"/>
</g>
<!-- 22&#45;&gt;409 -->
<g id="edge77" class="edge">
<title>22&#45;&gt;409</title>
<path fill="none" stroke="green" stroke-width="0.13" d="M185.71,-166.62C182.85,-159.56 178.54,-148.91 174.44,-138.78"/>
<polygon fill="green" stroke="green" stroke-width="0.13" points="177.62,-137.32 170.62,-129.36 171.13,-139.95 177.62,-137.32"/>
</g>
<!-- 23 -->
<g id="node12" class="node">
<title>23</title>
<polygon fill="lightgray" stroke="black" points="246,-184.75 220,-184.75 220,-166.75 246,-166.75 246,-184.75"/>
<text text-anchor="middle" x="233" y="-173.55" font-family="Times,serif" font-size="9.00">23</text>
</g>
<!-- 23&#45;&gt;403 -->
<g id="edge78" class="edge">
<title>23&#45;&gt;403</title>
<path fill="none" stroke="red" stroke-width="0.27" d="M231.73,-166.62C230.71,-160.03 229.19,-150.3 227.71,-140.79"/>
<polygon fill="red" stroke="red" stroke-width="0.27" points="231.14,-140.06 226.14,-130.72 224.22,-141.14 231.14,-140.06"/>
</g>
<!-- 23&#45;&gt;404 -->
<g id="edge79" class="edge">
<title>23&#45;&gt;404</title>
<path fill="none" stroke="red" stroke-width="0.25" d="M239.33,-166.62C245.53,-158.66 255.29,-146.13 264.01,-134.93"/>
<polygon fill="red" stroke="red" stroke-width="0.25" points="267.01,-136.77 270.39,-126.73 261.49,-132.47 267.01,-136.77"/>
</g>
<!-- 23&#45;&gt;405 -->
<g id="edge80" class="edge">
<title>23&#45;&gt;405</title>
<path fill="none" stroke="green" stroke-width="0.34" d="M246.23,-167.94C262.27,-159.59 290,-144.79 313,-130.75 314.47,-129.85 315.98,-128.91 317.49,-127.95"/>
<polygon fill="green" stroke="green" stroke-width="0.34" points="319.59,-130.76 326.04,-122.35 315.76,-124.9 319.59,-130.76"/>
</g>
<!-- 23&#45;&gt;406 -->
<g id="edge81" class="edge">
<title>23&#45;&gt;406</title>
<path fill="none" stroke="red" stroke-width="0.19" d="M246.46,-169.73C249.27,-168.72 252.22,-167.68 255,-166.75 307.01,-149.38 323.5,-154.33 373,-130.75 374.56,-130.01 376.13,-129.19 377.69,-128.33"/>
<polygon fill="red" stroke="red" stroke-width="0.19" points="379.69,-131.21 386.39,-123 376.03,-125.24 379.69,-131.21"/>
</g>
<!-- 23&#45;&gt;407 -->
<g id="edge82" class="edge">
<title>23&#45;&gt;407</title>
<path fill="none" stroke="green" stroke-width="0.23" d="M246.39,-169.52C249.21,-168.52 252.18,-167.54 255,-166.75 332.7,-144.9 358.54,-161.9 433,-130.75 434.59,-130.09 436.19,-129.33 437.77,-128.51"/>
<polygon fill="green" stroke="green" stroke-width="0.23" points="439.71,-131.43 446.53,-123.31 436.14,-125.41 439.71,-131.43"/>
</g>
<!-- 23&#45;&gt;408 -->
<g id="edge83" class="edge">
<title>23&#45;&gt;408</title>
<path fill="none" stroke="green" stroke-width="0.24" d="M246.36,-169.41C249.18,-168.42 252.16,-167.47 255,-166.75 358.67,-140.34 393.32,-169.59 493,-130.75 494.61,-130.13 496.22,-129.4 497.81,-128.6"/>
<polygon fill="green" stroke="green" stroke-width="0.24" points="499.72,-131.54 506.6,-123.48 496.19,-125.49 499.72,-131.54"/>
</g>
<!-- 23&#45;&gt;409 -->
<g id="edge84" class="edge">
<title>23&#45;&gt;409</title>
<path fill="none" stroke="red" stroke-width="0.27" d="M224.13,-166.62C214.57,-157.84 198.95,-143.52 185.89,-131.54"/>
<polygon fill="red" stroke="red" stroke-width="0.27" points="187.91,-128.64 178.17,-124.46 183.18,-133.8 187.91,-128.64"/>
</g>
<!-- 30 -->
<g id="node13" class="node">
<title>30</title>
<polygon fill="lightgray" stroke="black" points="290,-184.75 264,-184.75 264,-166.75 290,-166.75 290,-184.75"/>
<text text-anchor="middle" x="277" y="-173.55" font-family="Times,serif" font-size="9.00">30</text>
</g>
<!-- 30&#45;&gt;403 -->
<g id="edge85" class="edge">
<title>30&#45;&gt;403</title>
<path fill="none" stroke="red" stroke-width="0.62" d="M270.16,-166.62C263.31,-158.47 252.43,-145.54 242.85,-134.15"/>
<polygon fill="red" stroke="red" stroke-width="0.62" points="245.3,-131.61 236.18,-126.21 239.94,-136.12 245.3,-131.61"/>
</g>
<!-- 30&#45;&gt;404 -->
<g id="edge86" class="edge">
<title>30&#45;&gt;404</title>
<path fill="none" stroke="green" stroke-width="0.14" d="M277.76,-166.62C278.38,-160.03 279.28,-150.3 280.17,-140.79"/>
<polygon fill="green" stroke="green" stroke-width="0.14" points="283.67,-141 281.11,-130.72 276.7,-140.35 283.67,-141"/>
</g>
<!-- 30&#45;&gt;405 -->
<g id="edge87" class="edge">
<title>30&#45;&gt;405</title>
<path fill="none" stroke="red" stroke-width="0.4" d="M285.36,-166.62C294.26,-157.96 308.73,-143.88 320.94,-132"/>
<polygon fill="red" stroke="red" stroke-width="0.4" points="323.46,-134.44 328.18,-124.95 318.58,-129.42 323.46,-134.44"/>
</g>
<!-- 30&#45;&gt;406 -->
<g id="edge88" class="edge">
<title>30&#45;&gt;406</title>
<path fill="none" stroke="green" stroke-width="0.16" d="M290.06,-169.56C308.85,-161.92 344.38,-146.81 373,-130.75 374.51,-129.91 376.03,-129.01 377.56,-128.08"/>
<polygon fill="green" stroke="green" stroke-width="0.16" points="379.63,-130.91 386.17,-122.58 375.86,-125.02 379.63,-130.91"/>
</g>
<!-- 30&#45;&gt;407 -->
<g id="edge89" class="edge">
<title>30&#45;&gt;407</title>
<path fill="none" stroke="green" stroke-width="0.27" d="M290.43,-169.66C293.25,-168.65 296.21,-167.63 299,-166.75 357.81,-148.2 376.89,-156.33 433,-130.75 434.57,-130.04 436.15,-129.24 437.72,-128.39"/>
<polygon fill="green" stroke="green" stroke-width="0.27" points="439.7,-131.28 446.44,-123.11 436.07,-125.3 439.7,-131.28"/>
</g>
<!-- 30&#45;&gt;408 -->
<g id="edge90" class="edge">
<title>30&#45;&gt;408</title>
<path fill="none" stroke="red" stroke-width="0.39" d="M290.38,-169.49C293.2,-168.49 296.18,-167.52 299,-166.75 383.61,-143.69 411.83,-163.95 493,-130.75 494.6,-130.1 496.2,-129.35 497.78,-128.54"/>
<polygon fill="red" stroke="red" stroke-width="0.39" points="499.72,-131.46 506.55,-123.37 496.16,-125.43 499.72,-131.46"/>
</g>
<!-- 30&#45;&gt;409 -->
<g id="edge91" class="edge">
<title>30&#45;&gt;409</title>
<path fill="none" stroke="green" stroke-width="0.18" d="M263.95,-168.48C247.22,-160.31 217.46,-145.34 193,-130.75 191.52,-129.87 190.01,-128.94 188.49,-127.99"/>
<polygon fill="green" stroke="green" stroke-width="0.18" points="190.21,-124.93 179.92,-122.42 186.4,-130.8 190.21,-124.93"/>
</g>
<!-- 31 -->
<g id="node14" class="node">
<title>31</title>
<polygon fill="lightgray" stroke="black" points="334,-184.75 308,-184.75 308,-166.75 334,-166.75 334,-184.75"/>
<text text-anchor="middle" x="321" y="-173.55" font-family="Times,serif" font-size="9.00">31</text>
</g>
<!-- 31&#45;&gt;403 -->
<g id="edge92" class="edge">
<title>31&#45;&gt;403</title>
<path fill="none" stroke="green" stroke-width="0.29" d="M308.42,-166.71C294.74,-157.94 272.24,-143.46 253,-130.75 251.56,-129.8 250.08,-128.82 248.59,-127.83"/>
<polygon fill="green" stroke="green" stroke-width="0.29" points="250.35,-124.8 240.1,-122.14 246.46,-130.61 250.35,-124.8"/>
</g>
<!-- 31&#45;&gt;404 -->
<g id="edge93" class="edge">
<title>31&#45;&gt;404</title>
<path fill="none" stroke="red" stroke-width="0.16" d="M316.19,-166.62C311.76,-159.13 304.93,-147.6 298.62,-136.94"/>
<polygon fill="red" stroke="red" stroke-width="0.16" points="301.61,-135.12 293.51,-128.3 295.59,-138.68 301.61,-135.12"/>
</g>
<!-- 31&#45;&gt;405 -->
<g id="edge94" class="edge">
<title>31&#45;&gt;405</title>
<path fill="none" stroke="red" stroke-width="0.47" d="M323.79,-166.62C326.15,-159.74 329.67,-149.43 333.07,-139.53"/>
<polygon fill="red" stroke="red" stroke-width="0.47" points="336.44,-140.5 336.37,-129.9 329.81,-138.23 336.44,-140.5"/>
</g>
<!-- 31&#45;&gt;406 -->
<g id="edge95" class="edge">
<title>31&#45;&gt;406</title>
<path fill="none" stroke="red" stroke-width="0.12" d="M331.39,-166.62C343.17,-157.39 362.78,-142.03 378.51,-129.72"/>
<polygon fill="red" stroke="red" stroke-width="0.12" points="381.06,-132.17 386.77,-123.25 376.74,-126.66 381.06,-132.17"/>
</g>
<!-- 31&#45;&gt;407 -->
<g id="edge96" class="edge">
<title>31&#45;&gt;407</title>
<path fill="none" stroke="red" stroke-width="0.16" d="M334.37,-169.92C359.99,-160.58 415.06,-140.17 433,-130.75 434.53,-129.95 436.08,-129.09 437.62,-128.18"/>
<polygon fill="red" stroke="red" stroke-width="0.16" points="439.66,-131.03 446.27,-122.75 435.94,-125.11 439.66,-131.03"/>
</g>
<!-- 31&#45;&gt;408 -->
<g id="edge97" class="edge">
<title>31&#45;&gt;408</title>
<path fill="none" stroke="red" stroke-width="0.14" d="M334.42,-169.6C337.23,-168.6 340.2,-167.6 343,-166.75 408.65,-147.01 430.24,-158.35 493,-130.75 494.58,-130.06 496.17,-129.28 497.74,-128.44"/>
<polygon fill="red" stroke="red" stroke-width="0.14" points="499.71,-131.34 506.48,-123.2 496.1,-125.34 499.71,-131.34"/>
</g>
<!-- 31&#45;&gt;409 -->
<g id="edge98" class="edge">
<title>31&#45;&gt;409</title>
<path fill="none" stroke="green" stroke-width="0.23" d="M307.99,-169.97C305.04,-168.9 301.91,-167.78 299,-166.75 252.06,-150.25 237.58,-152.85 193,-130.75 191.45,-129.99 189.89,-129.15 188.34,-128.27"/>
<polygon fill="green" stroke="green" stroke-width="0.23" points="190,-125.19 179.66,-122.9 186.32,-131.14 190,-125.19"/>
</g>
<!-- 32 -->
<g id="node15" class="node">
<title>32</title>
<polygon fill="lightgray" stroke="black" points="378,-184.75 352,-184.75 352,-166.75 378,-166.75 378,-184.75"/>
<text text-anchor="middle" x="365" y="-173.55" font-family="Times,serif" font-size="9.00">32</text>
</g>
<!-- 32&#45;&gt;403 -->
<g id="edge99" class="edge">
<title>32&#45;&gt;403</title>
<path fill="none" stroke="red" stroke-width="0.28" d="M351.63,-169.92C326.01,-160.58 270.94,-140.17 253,-130.75 251.47,-129.95 249.92,-129.09 248.38,-128.18"/>
<polygon fill="red" stroke="red" stroke-width="0.28" points="250.06,-125.11 239.73,-122.75 246.34,-131.03 250.06,-125.11"/>
</g>
<!-- 32&#45;&gt;404 -->
<g id="edge100" class="edge">
<title>32&#45;&gt;404</title>
<path fill="none" stroke="green" stroke-width="0.13" d="M354.61,-166.62C342.83,-157.39 323.22,-142.03 307.49,-129.72"/>
<polygon fill="green" stroke="green" stroke-width="0.13" points="309.26,-126.66 299.23,-123.25 304.94,-132.17 309.26,-126.66"/>
</g>
<!-- 32&#45;&gt;405 -->
<g id="edge101" class="edge">
<title>32&#45;&gt;405</title>
<path fill="none" stroke="red" stroke-width="0.18" d="M362.21,-166.62C359.85,-159.74 356.33,-149.43 352.93,-139.53"/>
<polygon fill="red" stroke="red" stroke-width="0.18" points="356.19,-138.23 349.63,-129.9 349.56,-140.5 356.19,-138.23"/>
</g>
<!-- 32&#45;&gt;406 -->
<g id="edge102" class="edge">
<title>32&#45;&gt;406</title>
<path fill="none" stroke="green" stroke-width="0.27" d="M369.81,-166.62C374.24,-159.13 381.07,-147.6 387.38,-136.94"/>
<polygon fill="green" stroke="green" stroke-width="0.27" points="390.41,-138.68 392.49,-128.3 384.39,-135.12 390.41,-138.68"/>
</g>
<!-- 32&#45;&gt;407 -->
<g id="edge103" class="edge">
<title>32&#45;&gt;407</title>
<path fill="none" stroke="red" stroke-width="0.17" d="M377.58,-166.71C391.26,-157.94 413.76,-143.46 433,-130.75 434.44,-129.8 435.92,-128.82 437.41,-127.83"/>
<polygon fill="red" stroke="red" stroke-width="0.17" points="439.54,-130.61 445.9,-122.14 435.65,-124.8 439.54,-130.61"/>
</g>
<!-- 32&#45;&gt;408 -->
<g id="edge104" class="edge">
<title>32&#45;&gt;408</title>
<path fill="none" stroke="green" stroke-width="0.38" d="M378.01,-169.97C380.96,-168.9 384.09,-167.78 387,-166.75 433.94,-150.25 448.42,-152.85 493,-130.75 494.55,-129.99 496.11,-129.15 497.66,-128.27"/>
<polygon fill="green" stroke="green" stroke-width="0.38" points="499.68,-131.14 506.34,-122.9 496,-125.19 499.68,-131.14"/>
</g>
<!-- 32&#45;&gt;409 -->
<g id="edge105" class="edge">
<title>32&#45;&gt;409</title>
<path fill="none" stroke="red" stroke-width="0.24" d="M351.58,-169.6C348.77,-168.6 345.8,-167.6 343,-166.75 277.35,-147.01 255.76,-158.35 193,-130.75 191.42,-130.06 189.83,-129.28 188.26,-128.44"/>
<polygon fill="red" stroke="red" stroke-width="0.24" points="189.9,-125.34 179.52,-123.2 186.29,-131.34 189.9,-125.34"/>
</g>
<!-- 33 -->
<g id="node16" class="node">
<title>33</title>
<polygon fill="lightgray" stroke="black" points="422,-184.75 396,-184.75 396,-166.75 422,-166.75 422,-184.75"/>
<text text-anchor="middle" x="409" y="-173.55" font-family="Times,serif" font-size="9.00">33</text>
</g>
<!-- 33&#45;&gt;403 -->
<g id="edge106" class="edge">
<title>33&#45;&gt;403</title>
<path fill="none" stroke="red" stroke-width="0.41" d="M395.57,-169.66C392.75,-168.65 389.79,-167.63 387,-166.75 328.19,-148.2 309.11,-156.33 253,-130.75 251.43,-130.04 249.85,-129.24 248.28,-128.39"/>
<polygon fill="red" stroke="red" stroke-width="0.41" points="249.93,-125.3 239.56,-123.11 246.3,-131.28 249.93,-125.3"/>
</g>
<!-- 33&#45;&gt;404 -->
<g id="edge107" class="edge">
<title>33&#45;&gt;404</title>
<path fill="none" stroke="red" stroke-width="0.27" d="M395.94,-169.56C377.15,-161.92 341.62,-146.81 313,-130.75 311.49,-129.91 309.97,-129.01 308.44,-128.08"/>
<polygon fill="red" stroke="red" stroke-width="0.27" points="310.14,-125.02 299.83,-122.58 306.37,-130.91 310.14,-125.02"/>
</g>
<!-- 33&#45;&gt;405 -->
<g id="edge108" class="edge">
<title>33&#45;&gt;405</title>
<path fill="none" stroke="red" stroke-width="0.39" d="M400.64,-166.62C391.74,-157.96 377.27,-143.88 365.06,-132"/>
<polygon fill="red" stroke="red" stroke-width="0.39" points="367.42,-129.42 357.82,-124.95 362.54,-134.44 367.42,-129.42"/>
</g>
<!-- 33&#45;&gt;406 -->
<g id="edge109" class="edge">
<title>33&#45;&gt;406</title>
<path fill="none" stroke="green" stroke-width="0.1" d="M408.24,-166.62C407.62,-160.03 406.72,-150.3 405.83,-140.79"/>
<polygon fill="green" stroke="green" stroke-width="0.1" points="409.3,-140.35 404.89,-130.72 402.33,-141 409.3,-140.35"/>
</g>
<!-- 33&#45;&gt;407 -->
<g id="edge110" class="edge">
<title>33&#45;&gt;407</title>
<path fill="none" stroke="red" stroke-width="0.46" d="M415.84,-166.62C422.69,-158.47 433.57,-145.54 443.15,-134.15"/>
<polygon fill="red" stroke="red" stroke-width="0.46" points="446.06,-136.12 449.82,-126.21 440.7,-131.61 446.06,-136.12"/>
</g>
<!-- 33&#45;&gt;408 -->
<g id="edge111" class="edge">
<title>33&#45;&gt;408</title>
<path fill="none" stroke="green" stroke-width="0.28" d="M422.05,-168.48C438.78,-160.31 468.54,-145.34 493,-130.75 494.48,-129.87 495.99,-128.94 497.51,-127.99"/>
<polygon fill="green" stroke="green" stroke-width="0.28" points="499.6,-130.8 506.08,-122.42 495.79,-124.93 499.6,-130.8"/>
</g>
<!-- 33&#45;&gt;409 -->
<g id="edge112" class="edge">
<title>33&#45;&gt;409</title>
<path fill="none" stroke="red" stroke-width="0.29" d="M395.62,-169.49C392.8,-168.49 389.82,-167.52 387,-166.75 302.39,-143.69 274.17,-163.95 193,-130.75 191.4,-130.1 189.8,-129.35 188.22,-128.54"/>
<polygon fill="red" stroke="red" stroke-width="0.29" points="189.84,-125.43 179.45,-123.37 186.28,-131.46 189.84,-125.43"/>
</g>
<!-- left -->
<g id="node17" class="node">
<title>left</title>
<ellipse fill="lightblue" stroke="black" cx="376" cy="-26.16" rx="19.6" ry="19.6"/>
<text text-anchor="middle" x="376" y="-23.96" font-family="Times,serif" font-size="9.00">left</text>
</g>
<!-- right -->
<g id="node18" class="node">
<title>right</title>
<ellipse fill="lightblue" stroke="black" cx="437" cy="-26.16" rx="23.17" ry="23.17"/>
<text text-anchor="middle" x="437" y="-23.96" font-family="Times,serif" font-size="9.00">right</text>
</g>
<!-- up -->
<g id="node19" class="node">
<title>up</title>
<ellipse fill="lightblue" stroke="black" cx="249" cy="-26.16" rx="18.27" ry="18.27"/>
<text text-anchor="middle" x="249" y="-23.96" font-family="Times,serif" font-size="9.00">up</text>
</g>
<!-- down -->
<g id="node20" class="node">
<title>down</title>
<ellipse fill="lightblue" stroke="black" cx="312" cy="-26.16" rx="26.33" ry="26.33"/>
<text text-anchor="middle" x="312" y="-23.96" font-family="Times,serif" font-size="9.00">down</text>
</g>
<!-- 403&#45;&gt;left -->
<g id="edge113" class="edge">
<title>403&#45;&gt;left</title>
<path fill="none" stroke="red" stroke-width="0.17" d="M239.72,-96.3C243.94,-93.49 248.54,-90.64 253,-88.33 292.7,-67.69 308.63,-75.33 347,-52.33 349.52,-50.82 352.03,-49.08 354.46,-47.24"/>
<polygon fill="red" stroke="red" stroke-width="0.17" points="356.82,-49.83 362.31,-40.77 352.37,-44.43 356.82,-49.83"/>
</g>
<!-- 403&#45;&gt;right -->
<g id="edge114" class="edge">
<title>403&#45;&gt;right</title>
<path fill="none" stroke="red" stroke-width="0.35" d="M239.52,-95.87C243.74,-93.07 248.4,-90.34 253,-88.33 316.59,-60.48 342.47,-82.49 405,-52.33 407.34,-51.2 409.67,-49.87 411.94,-48.44"/>
<polygon fill="red" stroke="red" stroke-width="0.35" points="414.19,-51.13 420.32,-42.48 410.14,-45.42 414.19,-51.13"/>
</g>
<!-- 403&#45;&gt;up -->
<g id="edge115" class="edge">
<title>403&#45;&gt;up</title>
<path fill="none" stroke="green" stroke-width="0.14" d="M229.29,-88.84C232.69,-78.22 236.92,-64.96 240.59,-53.47"/>
<polygon fill="green" stroke="green" stroke-width="0.14" points="243.93,-54.52 243.64,-43.93 237.26,-52.39 243.93,-54.52"/>
</g>
<!-- 403&#45;&gt;down -->
<g id="edge116" class="edge">
<title>403&#45;&gt;down</title>
<path fill="none" stroke="red" stroke-width="0.31" d="M238.5,-94.36C251.4,-82.58 270.04,-65.53 285.32,-51.55"/>
<polygon fill="red" stroke="red" stroke-width="0.31" points="287.94,-53.9 292.96,-44.57 283.22,-48.74 287.94,-53.9"/>
</g>
<!-- 404&#45;&gt;left -->
<g id="edge117" class="edge">
<title>404&#45;&gt;left</title>
<path fill="none" stroke="red" stroke-width="0.33" d="M298.78,-94.73C313.83,-81.56 336.66,-61.59 353.59,-46.77"/>
<polygon fill="red" stroke="red" stroke-width="0.33" points="356.15,-49.18 361.37,-39.96 351.54,-43.91 356.15,-49.18"/>
</g>
<!-- 404&#45;&gt;right -->
<g id="edge118" class="edge">
<title>404&#45;&gt;right</title>
<path fill="none" stroke="green" stroke-width="0.34" d="M299.73,-96.32C303.95,-93.51 308.55,-90.66 313,-88.33 351.89,-67.94 366.89,-74.13 405,-52.33 407.2,-51.07 409.41,-49.67 411.59,-48.19"/>
<polygon fill="green" stroke="green" stroke-width="0.34" points="413.71,-50.97 419.72,-42.25 409.58,-45.32 413.71,-50.97"/>
</g>
<!-- 404&#45;&gt;up -->
<g id="edge119" class="edge">
<title>404&#45;&gt;up</title>
<path fill="none" stroke="red" stroke-width="0.29" d="M275.11,-89.67C270.55,-78.73 264.73,-64.82 259.75,-52.9"/>
<polygon fill="red" stroke="red" stroke-width="0.29" points="262.89,-51.34 255.81,-43.46 256.43,-54.04 262.89,-51.34"/>
</g>
<!-- 404&#45;&gt;down -->
<g id="edge120" class="edge">
<title>404&#45;&gt;down</title>
<path fill="none" stroke="green" stroke-width="0.17" d="M289.87,-89.25C292.94,-80.65 296.64,-70.27 300.13,-60.47"/>
<polygon fill="green" stroke="green" stroke-width="0.17" points="303.46,-61.56 303.52,-50.96 296.86,-59.21 303.46,-61.56"/>
</g>
<!-- 405&#45;&gt;left -->
<g id="edge121" class="edge">
<title>405&#45;&gt;left</title>
<path fill="none" stroke="red" stroke-width="0.17" d="M350.65,-89.67C354.94,-79.1 360.35,-65.75 365.07,-54.1"/>
<polygon fill="red" stroke="red" stroke-width="0.17" points="368.32,-55.4 368.84,-44.82 361.84,-52.77 368.32,-55.4"/>
</g>
<!-- 405&#45;&gt;right -->
<g id="edge122" class="edge">
<title>405&#45;&gt;right</title>
<path fill="none" stroke="green" stroke-width="0.17" d="M358.95,-94.73C373.44,-82.19 395.07,-63.46 411.88,-48.91"/>
<polygon fill="green" stroke="green" stroke-width="0.17" points="414.43,-51.33 419.7,-42.14 409.85,-46.04 414.43,-51.33"/>
</g>
<!-- 405&#45;&gt;up -->
<g id="edge123" class="edge">
<title>405&#45;&gt;up</title>
<path fill="none" stroke="green" stroke-width="0.45" d="M327.16,-95.25C313.73,-83.94 293.99,-67.19 277,-52.33 274.74,-50.35 272.39,-48.27 270.05,-46.19"/>
<polygon fill="green" stroke="green" stroke-width="0.45" points="272.11,-43.33 262.32,-39.27 267.44,-48.55 272.11,-43.33"/>
</g>
<!-- 405&#45;&gt;down -->
<g id="edge124" class="edge">
<title>405&#45;&gt;down</title>
<path fill="none" stroke="green" stroke-width="0.21" d="M335.65,-89.25C332.38,-80.65 328.42,-70.27 324.69,-60.47"/>
<polygon fill="green" stroke="green" stroke-width="0.21" points="327.9,-59.06 321.07,-50.96 321.36,-61.55 327.9,-59.06"/>
</g>
<!-- 406&#45;&gt;left -->
<g id="edge125" class="edge">
<title>406&#45;&gt;left</title>
<path fill="none" stroke="red" stroke-width="0.22" d="M396.6,-89.25C393.21,-79.03 388.98,-66.3 385.24,-55.02"/>
<polygon fill="red" stroke="red" stroke-width="0.22" points="388.45,-53.58 381.98,-45.19 381.81,-55.79 388.45,-53.58"/>
</g>
<!-- 406&#45;&gt;right -->
<g id="edge126" class="edge">
<title>406&#45;&gt;right</title>
<path fill="none" stroke="green" stroke-width="0.35" d="M410.89,-89.67C414.88,-80.1 419.83,-68.26 424.34,-57.46"/>
<polygon fill="green" stroke="green" stroke-width="0.35" points="427.7,-58.51 428.32,-47.93 421.24,-55.81 427.7,-58.51"/>
</g>
<!-- 406&#45;&gt;up -->
<g id="edge127" class="edge">
<title>406&#45;&gt;up</title>
<path fill="none" stroke="red" stroke-width="0.34" d="M386.29,-96.28C382.07,-93.46 377.47,-90.63 373,-88.33 332.49,-67.45 315.96,-75.97 277,-52.33 274.29,-50.68 271.61,-48.76 269.03,-46.73"/>
<polygon fill="red" stroke="red" stroke-width="0.34" points="271.15,-43.93 261.3,-40.03 266.57,-49.22 271.15,-43.93"/>
</g>
<!-- 406&#45;&gt;down -->
<g id="edge128" class="edge">
<title>406&#45;&gt;down</title>
<path fill="none" stroke="green" stroke-width="0.11" d="M387.56,-94.73C374.23,-82.81 354.66,-65.31 338.78,-51.11"/>
<polygon fill="green" stroke="green" stroke-width="0.11" points="341.11,-48.49 331.32,-44.44 336.44,-53.71 341.11,-48.49"/>
</g>
<!-- 407&#45;&gt;left -->
<g id="edge129" class="edge">
<title>407&#45;&gt;left</title>
<path fill="none" stroke="red" stroke-width="0.14" d="M447.85,-94.36C434,-81.41 413.37,-62.11 397.76,-47.51"/>
<polygon fill="red" stroke="red" stroke-width="0.14" points="399.81,-44.64 390.12,-40.37 395.03,-49.75 399.81,-44.64"/>
</g>
<!-- 407&#45;&gt;right -->
<g id="edge130" class="edge">
<title>407&#45;&gt;right</title>
<path fill="none" stroke="red" stroke-width="0.2" d="M456.71,-88.84C453.8,-79.74 450.27,-68.71 447.01,-58.5"/>
<polygon fill="red" stroke="red" stroke-width="0.2" points="450.25,-57.14 443.87,-48.68 443.58,-59.27 450.25,-57.14"/>
</g>
<!-- 407&#45;&gt;up -->
<g id="edge131" class="edge">
<title>407&#45;&gt;up</title>
<path fill="none" stroke="red" stroke-width="0.15" d="M446.49,-95.85C442.27,-93.05 437.61,-90.33 433,-88.33 367.74,-59.97 340.13,-85.15 277,-52.33 274.19,-50.87 271.44,-49.06 268.83,-47.08"/>
<polygon fill="red" stroke="red" stroke-width="0.15" points="270.94,-44.28 261.06,-40.45 266.39,-49.6 270.94,-44.28"/>
</g>
<!-- 407&#45;&gt;down -->
<g id="edge132" class="edge">
<title>407&#45;&gt;down</title>
<path fill="none" stroke="green" stroke-width="0.47" d="M446.23,-96.4C442.01,-93.58 437.42,-90.71 433,-88.33 396.53,-68.65 383.17,-72.55 347,-52.33 344.98,-51.2 342.94,-49.98 340.92,-48.7"/>
<polygon fill="green" stroke="green" stroke-width="0.47" points="342.47,-45.53 332.21,-42.87 338.58,-51.34 342.47,-45.53"/>
</g>
<!-- 408&#45;&gt;left -->
<g id="edge133" class="edge">
<title>408&#45;&gt;left</title>
<path fill="none" stroke="green" stroke-width="0.54" d="M506.24,-96.37C502.02,-93.55 497.43,-90.69 493,-88.33 455.73,-68.42 440.99,-74.47 405,-52.33 402.5,-50.79 400,-49.03 397.57,-47.18"/>
<polygon fill="green" stroke="green" stroke-width="0.54" points="399.67,-44.37 389.73,-40.7 395.21,-49.77 399.67,-44.37"/>
</g>
<!-- 408&#45;&gt;right -->
<g id="edge134" class="edge">
<title>408&#45;&gt;right</title>
<path fill="none" stroke="red" stroke-width="0.34" d="M508.02,-94.36C495.07,-82.11 476.11,-64.17 461.04,-49.91"/>
<polygon fill="red" stroke="red" stroke-width="0.34" points="463.24,-47.17 453.57,-42.84 458.43,-52.26 463.24,-47.17"/>
</g>
<!-- 408&#45;&gt;up -->
<g id="edge135" class="edge">
<title>408&#45;&gt;up</title>
<path fill="none" stroke="green" stroke-width="0.38" d="M506.58,-95.65C502.35,-92.86 497.67,-90.18 493,-88.33 402.58,-52.31 364.69,-94.54 277,-52.33 274,-50.88 271.08,-49.01 268.33,-46.95"/>
<polygon fill="green" stroke="green" stroke-width="0.38" points="270.55,-44.24 260.69,-40.39 266,-49.55 270.55,-44.24"/>
</g>
<!-- 408&#45;&gt;down -->
<g id="edge136" class="edge">
<title>408&#45;&gt;down</title>
<path fill="none" stroke="red" stroke-width="0.4" d="M506.47,-95.9C502.25,-93.1 497.59,-90.36 493,-88.33 431.9,-61.24 407.68,-80.34 347,-52.33 344.9,-51.36 342.8,-50.26 340.73,-49.07"/>
<polygon fill="red" stroke="red" stroke-width="0.4" points="342.23,-45.88 331.92,-43.45 338.47,-51.78 342.23,-45.88"/>
</g>
<!-- 409&#45;&gt;left -->
<g id="edge137" class="edge">
<title>409&#45;&gt;left</title>
<path fill="none" stroke="green" stroke-width="0.14" d="M179.51,-95.86C183.74,-93.06 188.39,-90.33 193,-88.33 257.43,-60.23 284.4,-84.29 347,-52.33 349.62,-50.99 352.19,-49.37 354.66,-47.6"/>
<polygon fill="green" stroke="green" stroke-width="0.14" points="356.98,-50.22 362.56,-41.22 352.58,-44.78 356.98,-50.22"/>
</g>
<!-- 409&#45;&gt;right -->
<g id="edge138" class="edge">
<title>409&#45;&gt;right</title>
<path fill="none" stroke="red" stroke-width="0.28" d="M179.43,-95.66C183.66,-92.87 188.34,-90.19 193,-88.33 281.73,-52.83 317.63,-91.06 405,-52.33 407.37,-51.27 409.73,-50 412.01,-48.6"/>
<polygon fill="red" stroke="red" stroke-width="0.28" points="414.24,-51.32 420.42,-42.72 410.22,-45.58 414.24,-51.32"/>
</g>
<!-- 409&#45;&gt;up -->
<g id="edge139" class="edge">
<title>409&#45;&gt;up</title>
<path fill="none" stroke="green" stroke-width="0.43" d="M177.98,-94.36C192,-81.1 213.05,-61.18 228.59,-46.47"/>
<polygon fill="green" stroke="green" stroke-width="0.43" points="231.3,-48.73 236.15,-39.32 226.48,-43.65 231.3,-48.73"/>
</g>
<!-- 409&#45;&gt;down -->
<g id="edge140" class="edge">
<title>409&#45;&gt;down</title>
<path fill="none" stroke="red" stroke-width="0.24" d="M179.79,-96.44C184.01,-93.62 188.59,-90.74 193,-88.33 228.27,-69.01 240.9,-71.94 276,-52.33 278.27,-51.06 280.58,-49.68 282.87,-48.24"/>
<polygon fill="red" stroke="red" stroke-width="0.24" points="285.1,-50.96 291.52,-42.53 281.25,-45.12 285.1,-50.96"/>
</g>
</g>
</svg>
